M48
; DRILL file {KiCad (5.1.9)-1} date 02/05/21 18:08:39
; FORMAT={-:-/ absolute / inch / decimal}
; #@! TF.CreationDate,2021-02-05T18:08:39+10:00
; #@! TF.GenerationSoftware,Kicad,Pcbnew,(5.1.9)-1
; #@! TF.FileFunction,Plated,1,2,PTH
FMAT,2
INCH
T1C0.0157
T2C0.0236
%
G90
G05
T1
X3.963Y-4.388
X3.975Y-1.862
X4.03Y-2.146
X4.045Y-4.093
X4.069Y-3.804
X4.076Y-2.471
X4.094Y-2.663
X4.107Y-3.593
X4.114Y-3.024
X4.114Y-3.243
X4.4354Y-4.388
X4.4474Y-1.862
X4.5024Y-2.146
X4.5174Y-4.093
X4.5414Y-3.804
X4.5484Y-2.471
X4.5664Y-2.663
X4.5794Y-3.593
X4.5864Y-3.024
X4.5864Y-3.243
X4.9079Y-4.388
X4.9199Y-1.862
X4.9749Y-2.146
X4.9899Y-4.093
X5.0139Y-3.804
X5.0209Y-2.471
X5.0389Y-2.663
X5.0519Y-3.593
X5.0589Y-3.024
X5.0589Y-3.243
X5.3803Y-4.388
X5.3923Y-1.862
X5.4473Y-2.146
X5.4623Y-4.093
X5.4863Y-3.804
X5.4933Y-2.471
X5.5113Y-2.663
X5.5243Y-3.593
X5.5313Y-3.024
X5.5313Y-3.243
X5.8528Y-4.388
X5.8648Y-1.862
X5.9198Y-2.146
X5.9348Y-4.093
X5.9588Y-3.804
X5.9658Y-2.471
X5.9838Y-2.663
X5.9968Y-3.593
X6.0038Y-3.024
X6.0038Y-3.243
X6.3252Y-4.388
X6.3372Y-1.862
X6.3922Y-2.146
X6.4072Y-4.093
X6.4312Y-3.804
X6.4382Y-2.471
X6.4562Y-2.663
X6.4692Y-3.593
X6.4762Y-3.024
X6.4762Y-3.243
X6.7976Y-4.388
X6.8096Y-1.862
X6.8646Y-2.146
X6.8796Y-4.093
X6.9036Y-3.804
X6.9106Y-2.471
X6.9286Y-2.663
X6.9416Y-3.593
X6.9486Y-3.024
X6.9486Y-3.243
X7.2701Y-4.388
X7.2821Y-1.862
X7.3371Y-2.146
X7.3521Y-4.093
X7.3761Y-3.804
X7.3831Y-2.471
X7.4011Y-2.663
X7.4141Y-3.593
X7.4211Y-3.024
X7.4211Y-3.243
T2
X3.793Y-4.729
X3.794Y-1.525
X3.807Y-4.659
X3.811Y-1.587
X3.867Y-1.721
X3.869Y-1.9
X3.869Y-4.546
X3.879Y-1.772
X3.881Y-4.49
X3.911Y-4.124
X3.95Y-1.475
X3.951Y-4.781
X3.988Y-2.266
X3.988Y-2.463
X3.988Y-3.998
X3.991Y-2.57
X3.996Y-3.942
X3.997Y-2.317
X3.998Y-3.68
X4.01Y-3.571
X4.03Y-3.127
X4.037Y-3.031
X4.05Y-2.817
X4.05Y-3.44
X4.053Y-2.872
X4.053Y-3.387
X4.2654Y-4.729
X4.2664Y-1.525
X4.2794Y-4.659
X4.2834Y-1.587
X4.3394Y-1.721
X4.3414Y-1.9
X4.3414Y-4.546
X4.3514Y-1.772
X4.3534Y-4.49
X4.3834Y-4.124
X4.4224Y-1.475
X4.4234Y-4.781
X4.4604Y-2.266
X4.4604Y-2.463
X4.4604Y-3.998
X4.4634Y-2.57
X4.4684Y-3.942
X4.4694Y-2.317
X4.4704Y-3.68
X4.4824Y-3.571
X4.5024Y-3.127
X4.5094Y-3.031
X4.5224Y-2.817
X4.5224Y-3.44
X4.5254Y-2.872
X4.5254Y-3.387
X4.7379Y-4.729
X4.7389Y-1.525
X4.7519Y-4.659
X4.7559Y-1.587
X4.8119Y-1.721
X4.8139Y-1.9
X4.8139Y-4.546
X4.8239Y-1.772
X4.8259Y-4.49
X4.8559Y-4.124
X4.8949Y-1.475
X4.8959Y-4.781
X4.9329Y-2.266
X4.9329Y-2.463
X4.9329Y-3.998
X4.9359Y-2.57
X4.9409Y-3.942
X4.9419Y-2.317
X4.9429Y-3.68
X4.9549Y-3.571
X4.9749Y-3.127
X4.9819Y-3.031
X4.9949Y-2.817
X4.9949Y-3.44
X4.9979Y-2.872
X4.9979Y-3.387
X5.2103Y-4.729
X5.2113Y-1.525
X5.2243Y-4.659
X5.2283Y-1.587
X5.2843Y-1.721
X5.2863Y-1.9
X5.2863Y-4.546
X5.2963Y-1.772
X5.2983Y-4.49
X5.3283Y-4.124
X5.3673Y-1.475
X5.3683Y-4.781
X5.4053Y-2.266
X5.4053Y-2.463
X5.4053Y-3.998
X5.4083Y-2.57
X5.4133Y-3.942
X5.4143Y-2.317
X5.4153Y-3.68
X5.4273Y-3.571
X5.4473Y-3.127
X5.4543Y-3.031
X5.4673Y-2.817
X5.4673Y-3.44
X5.4703Y-2.872
X5.4703Y-3.387
X5.6828Y-4.729
X5.6838Y-1.525
X5.6968Y-4.659
X5.7008Y-1.587
X5.7568Y-1.721
X5.7588Y-1.9
X5.7588Y-4.546
X5.7688Y-1.772
X5.7708Y-4.49
X5.8008Y-4.124
X5.8398Y-1.475
X5.8408Y-4.781
X5.8778Y-2.266
X5.8778Y-2.463
X5.8778Y-3.998
X5.8808Y-2.57
X5.8858Y-3.942
X5.8868Y-2.317
X5.8878Y-3.68
X5.8998Y-3.571
X5.9198Y-3.127
X5.9268Y-3.031
X5.9398Y-2.817
X5.9398Y-3.44
X5.9428Y-2.872
X5.9428Y-3.387
X6.1552Y-4.729
X6.1562Y-1.525
X6.1692Y-4.659
X6.1732Y-1.587
X6.2292Y-1.721
X6.2312Y-1.9
X6.2312Y-4.546
X6.2412Y-1.772
X6.2432Y-4.49
X6.2732Y-4.124
X6.3122Y-1.475
X6.3132Y-4.781
X6.3502Y-2.266
X6.3502Y-2.463
X6.3502Y-3.998
X6.3532Y-2.57
X6.3582Y-3.942
X6.3592Y-2.317
X6.3602Y-3.68
X6.3722Y-3.571
X6.3922Y-3.127
X6.3992Y-3.031
X6.4122Y-2.817
X6.4122Y-3.44
X6.4152Y-2.872
X6.4152Y-3.387
X6.6276Y-4.729
X6.6286Y-1.525
X6.6416Y-4.659
X6.6456Y-1.587
X6.7016Y-1.721
X6.7036Y-1.9
X6.7036Y-4.546
X6.7136Y-1.772
X6.7156Y-4.49
X6.7456Y-4.124
X6.7846Y-1.475
X6.7856Y-4.781
X6.8226Y-2.266
X6.8226Y-2.463
X6.8226Y-3.998
X6.8256Y-2.57
X6.8306Y-3.942
X6.8316Y-2.317
X6.8326Y-3.68
X6.8446Y-3.571
X6.8646Y-3.127
X6.8716Y-3.031
X6.8846Y-2.817
X6.8846Y-3.44
X6.8876Y-2.872
X6.8876Y-3.387
X7.1001Y-4.729
X7.1011Y-1.525
X7.1141Y-4.659
X7.1181Y-1.587
X7.1741Y-1.721
X7.1761Y-1.9
X7.1761Y-4.546
X7.1861Y-1.772
X7.1881Y-4.49
X7.2181Y-4.124
X7.2571Y-1.475
X7.2581Y-4.781
X7.2951Y-2.266
X7.2951Y-2.463
X7.2951Y-3.998
X7.2981Y-2.57
X7.3031Y-3.942
X7.3041Y-2.317
X7.3051Y-3.68
X7.3171Y-3.571
X7.3371Y-3.127
X7.3441Y-3.031
X7.3571Y-2.817
X7.3571Y-3.44
X7.3601Y-2.872
X7.3601Y-3.387
T0
M30
