M48
; DRILL file {KiCad (5.1.9)-1} date 02/05/21 18:08:39
; FORMAT={-:-/ absolute / inch / decimal}
; #@! TF.CreationDate,2021-02-05T18:08:39+10:00
; #@! TF.GenerationSoftware,Kicad,Pcbnew,(5.1.9)-1
; #@! TF.FileFunction,NonPlated,1,2,NPTH
FMAT,2
INCH
T1C0.0315
T2C0.1260
%
G90
G05
T1
X3.7384Y-4.7775
X3.7833Y-4.7921
X3.8282Y-4.8067
X3.8732Y-4.8213
X3.9181Y-4.8359
X3.963Y-4.8505
X4.2108Y-4.7775
X4.2558Y-4.7921
X4.3007Y-4.8067
X4.3456Y-4.8213
X4.3906Y-4.8359
X4.4355Y-4.8505
X4.6833Y-4.7775
X4.7282Y-4.7921
X4.7731Y-4.8067
X4.8181Y-4.8213
X4.863Y-4.8359
X4.9079Y-4.8505
X5.1557Y-4.7775
X5.2006Y-4.7921
X5.2456Y-4.8067
X5.2905Y-4.8213
X5.3354Y-4.8359
X5.3804Y-4.8505
X5.6281Y-4.7775
X5.6731Y-4.7921
X5.718Y-4.8067
X5.7629Y-4.8213
X5.8079Y-4.8359
X5.8528Y-4.8505
X6.1006Y-4.7775
X6.1455Y-4.7921
X6.1905Y-4.8067
X6.2354Y-4.8213
X6.2803Y-4.8359
X6.3252Y-4.8505
X6.573Y-4.7775
X6.618Y-4.7921
X6.6629Y-4.8067
X6.7078Y-4.8213
X6.7528Y-4.8359
X6.7977Y-4.8505
X7.0455Y-4.7775
X7.0904Y-4.7921
X7.1353Y-4.8067
X7.1803Y-4.8213
X7.2252Y-4.8359
X7.2701Y-4.8505
T2
X4.0038Y-2.002
X4.0038Y-4.253
X4.4763Y-2.002
X4.4763Y-4.253
X4.9487Y-2.002
X4.9487Y-4.253
X5.4211Y-2.002
X5.4211Y-4.253
X5.8936Y-2.002
X5.8936Y-4.253
X6.366Y-2.002
X6.366Y-4.253
X6.8385Y-2.002
X6.8385Y-4.253
X7.3109Y-2.002
X7.3109Y-4.253
T0
M30
