%TF.GenerationSoftware,KiCad,Pcbnew,(5.1.9)-1*%
%TF.CreationDate,2021-02-05T18:08:36+10:00*%
%TF.ProjectId,PCB,5043422e-6b69-4636-9164-5f7063625858,rev?*%
%TF.SameCoordinates,Original*%
%TF.FileFunction,Profile,NP*%
%FSLAX46Y46*%
G04 Gerber Fmt 4.6, Leading zero omitted, Abs format (unit mm)*
G04 Created by KiCad (PCBNEW (5.1.9)-1) date 2021-02-05 18:08:36*
%MOMM*%
%LPD*%
G01*
G04 APERTURE LIST*
%TA.AperFunction,Profile*%
%ADD10C,0.100000*%
%TD*%
G04 APERTURE END LIST*
D10*
X185775997Y-123163782D02*
X185775997Y-134000000D01*
X178167545Y-120691646D02*
X176728769Y-124676917D01*
X166167545Y-120691646D02*
X164728769Y-124676917D01*
X154167545Y-120691646D02*
X152728769Y-124676917D01*
X142167545Y-120691646D02*
X140728769Y-124676917D01*
X130167545Y-120691646D02*
X128728769Y-124676917D01*
X118167545Y-120691646D02*
X116728769Y-124676917D01*
X106167545Y-120691646D02*
X104728769Y-124676917D01*
X176728770Y-124676917D02*
G75*
G02*
X173775997Y-123163782I-1478770J751917D01*
G01*
X164728770Y-124676917D02*
G75*
G02*
X161775997Y-123163782I-1478770J751917D01*
G01*
X152728770Y-124676917D02*
G75*
G02*
X149775997Y-123163782I-1478770J751917D01*
G01*
X140728770Y-124676917D02*
G75*
G02*
X137775997Y-123163782I-1478770J751917D01*
G01*
X128728770Y-124676917D02*
G75*
G02*
X125775997Y-123163782I-1478770J751917D01*
G01*
X116728770Y-124676917D02*
G75*
G02*
X113775997Y-123163782I-1478770J751917D01*
G01*
X178167545Y-38184109D02*
G75*
G02*
X178167545Y-120691646I-126966044J-41253768D01*
G01*
X166167545Y-38184109D02*
G75*
G02*
X166167545Y-120691646I-126966044J-41253768D01*
G01*
X154167545Y-38184109D02*
G75*
G02*
X154167545Y-120691646I-126966044J-41253768D01*
G01*
X142167545Y-38184109D02*
G75*
G02*
X142167545Y-120691646I-126966044J-41253768D01*
G01*
X130167545Y-38184109D02*
G75*
G02*
X130167545Y-120691646I-126966044J-41253768D01*
G01*
X118167545Y-38184109D02*
G75*
G02*
X118167545Y-120691646I-126966044J-41253768D01*
G01*
X106167545Y-38184109D02*
G75*
G02*
X106167545Y-120691646I-126966044J-41253768D01*
G01*
X185775997Y-35711973D02*
G75*
G02*
X185775997Y-123163782I-134574496J-43725904D01*
G01*
X173775997Y-35711973D02*
G75*
G02*
X173775997Y-123163782I-134574496J-43725904D01*
G01*
X161775997Y-35711973D02*
G75*
G02*
X161775997Y-123163782I-134574496J-43725904D01*
G01*
X149775997Y-35711973D02*
G75*
G02*
X149775997Y-123163782I-134574496J-43725904D01*
G01*
X137775997Y-35711973D02*
G75*
G02*
X137775997Y-123163782I-134574496J-43725904D01*
G01*
X125775997Y-35711973D02*
G75*
G02*
X125775997Y-123163782I-134574496J-43725904D01*
G01*
X113775997Y-35711973D02*
G75*
G02*
X113775997Y-123163782I-134574496J-43725904D01*
G01*
X185775997Y-35711972D02*
X178167545Y-38184108D01*
X173775997Y-35711972D02*
X166167545Y-38184108D01*
X161775997Y-35711972D02*
X154167545Y-38184108D01*
X149775997Y-35711972D02*
X142167545Y-38184108D01*
X137775997Y-35711972D02*
X130167545Y-38184108D01*
X125775997Y-35711972D02*
X118167545Y-38184108D01*
X113775997Y-35711972D02*
X106167545Y-38184108D01*
X104728770Y-124676917D02*
G75*
G02*
X101775997Y-123163782I-1478770J751917D01*
G01*
X94175000Y-134000000D02*
X185775997Y-134000000D01*
X94167545Y-120691646D02*
X94175000Y-134000000D01*
X94167545Y-38184109D02*
G75*
G02*
X94167545Y-120691646I-126966044J-41253768D01*
G01*
X101775997Y-35711973D02*
G75*
G02*
X101775997Y-123163782I-134574496J-43725904D01*
G01*
X101775997Y-35711972D02*
X94167545Y-38184108D01*
M02*
