%TF.GenerationSoftware,KiCad,Pcbnew,(5.1.9)-1*%
%TF.CreationDate,2021-02-05T18:08:36+10:00*%
%TF.ProjectId,PCB,5043422e-6b69-4636-9164-5f7063625858,rev?*%
%TF.SameCoordinates,Original*%
%TF.FileFunction,Legend,Top*%
%TF.FilePolarity,Positive*%
%FSLAX46Y46*%
G04 Gerber Fmt 4.6, Leading zero omitted, Abs format (unit mm)*
G04 Created by KiCad (PCBNEW (5.1.9)-1) date 2021-02-05 18:08:36*
%MOMM*%
%LPD*%
G01*
G04 APERTURE LIST*
%ADD10C,0.120000*%
%ADD11C,1.200000*%
%ADD12C,0.150000*%
G04 APERTURE END LIST*
D10*
%TO.C,D4*%
X191096827Y-68474796D02*
X191478879Y-75764792D01*
X185604365Y-68762644D02*
X185986417Y-76052640D01*
X185986417Y-76052640D02*
X187134841Y-75992453D01*
X179096827Y-68474796D02*
X179478879Y-75764792D01*
X173604365Y-68762644D02*
X173986417Y-76052640D01*
X173986417Y-76052640D02*
X175134841Y-75992453D01*
X167096827Y-68474796D02*
X167478879Y-75764792D01*
X161604365Y-68762644D02*
X161986417Y-76052640D01*
X161986417Y-76052640D02*
X163134841Y-75992453D01*
X155096827Y-68474796D02*
X155478879Y-75764792D01*
X149604365Y-68762644D02*
X149986417Y-76052640D01*
X149986417Y-76052640D02*
X151134841Y-75992453D01*
X143096827Y-68474796D02*
X143478879Y-75764792D01*
X137604365Y-68762644D02*
X137986417Y-76052640D01*
X137986417Y-76052640D02*
X139134841Y-75992453D01*
X131096827Y-68474796D02*
X131478879Y-75764792D01*
X125604365Y-68762644D02*
X125986417Y-76052640D01*
X125986417Y-76052640D02*
X127134841Y-75992453D01*
X119096827Y-68474796D02*
X119478879Y-75764792D01*
X113604365Y-68762644D02*
X113986417Y-76052640D01*
X113986417Y-76052640D02*
X115134841Y-75992453D01*
%TO.C,C2*%
X187760602Y-93033446D02*
X188280243Y-93088063D01*
X187606945Y-94495393D02*
X188126586Y-94550010D01*
X175760602Y-93033446D02*
X176280243Y-93088063D01*
X175606945Y-94495393D02*
X176126586Y-94550010D01*
X163760602Y-93033446D02*
X164280243Y-93088063D01*
X163606945Y-94495393D02*
X164126586Y-94550010D01*
X151760602Y-93033446D02*
X152280243Y-93088063D01*
X151606945Y-94495393D02*
X152126586Y-94550010D01*
X139760602Y-93033446D02*
X140280243Y-93088063D01*
X139606945Y-94495393D02*
X140126586Y-94550010D01*
X127760602Y-93033446D02*
X128280243Y-93088063D01*
X127606945Y-94495393D02*
X128126586Y-94550010D01*
X115760602Y-93033446D02*
X116280243Y-93088063D01*
X115606945Y-94495393D02*
X116126586Y-94550010D01*
%TO.C,D3*%
X191455459Y-83097508D02*
X191073407Y-90387504D01*
X185962997Y-82809660D02*
X185580945Y-90099656D01*
X185580945Y-90099656D02*
X186729369Y-90159842D01*
X179455459Y-83097508D02*
X179073407Y-90387504D01*
X173962997Y-82809660D02*
X173580945Y-90099656D01*
X173580945Y-90099656D02*
X174729369Y-90159842D01*
X167455459Y-83097508D02*
X167073407Y-90387504D01*
X161962997Y-82809660D02*
X161580945Y-90099656D01*
X161580945Y-90099656D02*
X162729369Y-90159842D01*
X155455459Y-83097508D02*
X155073407Y-90387504D01*
X149962997Y-82809660D02*
X149580945Y-90099656D01*
X149580945Y-90099656D02*
X150729369Y-90159842D01*
X143455459Y-83097508D02*
X143073407Y-90387504D01*
X137962997Y-82809660D02*
X137580945Y-90099656D01*
X137580945Y-90099656D02*
X138729369Y-90159842D01*
X131455459Y-83097508D02*
X131073407Y-90387504D01*
X125962997Y-82809660D02*
X125580945Y-90099656D01*
X125580945Y-90099656D02*
X126729369Y-90159842D01*
X119455459Y-83097508D02*
X119073407Y-90387504D01*
X113962997Y-82809660D02*
X113580945Y-90099656D01*
X113580945Y-90099656D02*
X114729369Y-90159842D01*
%TO.C,D1*%
X187615433Y-112198560D02*
X185726054Y-119249819D01*
X182302840Y-110775055D02*
X180413461Y-117826314D01*
X180413461Y-117826314D02*
X181524276Y-118123956D01*
X175615433Y-112198560D02*
X173726054Y-119249819D01*
X170302840Y-110775055D02*
X168413461Y-117826314D01*
X168413461Y-117826314D02*
X169524276Y-118123956D01*
X163615433Y-112198560D02*
X161726054Y-119249819D01*
X158302840Y-110775055D02*
X156413461Y-117826314D01*
X156413461Y-117826314D02*
X157524276Y-118123956D01*
X151615433Y-112198560D02*
X149726054Y-119249819D01*
X146302840Y-110775055D02*
X144413461Y-117826314D01*
X144413461Y-117826314D02*
X145524276Y-118123956D01*
X139615433Y-112198560D02*
X137726054Y-119249819D01*
X134302840Y-110775055D02*
X132413461Y-117826314D01*
X132413461Y-117826314D02*
X133524276Y-118123956D01*
X127615433Y-112198560D02*
X125726054Y-119249819D01*
X122302840Y-110775055D02*
X120413461Y-117826314D01*
X120413461Y-117826314D02*
X121524276Y-118123956D01*
X115615433Y-112198560D02*
X113726054Y-119249819D01*
X110302840Y-110775055D02*
X108413461Y-117826314D01*
X108413461Y-117826314D02*
X109524276Y-118123956D01*
%TO.C,D2*%
X190291070Y-97734268D02*
X189149098Y-104944393D01*
X184858784Y-96873879D02*
X183716812Y-104084004D01*
X183716812Y-104084004D02*
X184852654Y-104263903D01*
X178291070Y-97734268D02*
X177149098Y-104944393D01*
X172858784Y-96873879D02*
X171716812Y-104084004D01*
X171716812Y-104084004D02*
X172852654Y-104263903D01*
X166291070Y-97734268D02*
X165149098Y-104944393D01*
X160858784Y-96873879D02*
X159716812Y-104084004D01*
X159716812Y-104084004D02*
X160852654Y-104263903D01*
X154291070Y-97734268D02*
X153149098Y-104944393D01*
X148858784Y-96873879D02*
X147716812Y-104084004D01*
X147716812Y-104084004D02*
X148852654Y-104263903D01*
X142291070Y-97734268D02*
X141149098Y-104944393D01*
X136858784Y-96873879D02*
X135716812Y-104084004D01*
X135716812Y-104084004D02*
X136852654Y-104263903D01*
X130291070Y-97734268D02*
X129149098Y-104944393D01*
X124858784Y-96873879D02*
X123716812Y-104084004D01*
X123716812Y-104084004D02*
X124852654Y-104263903D01*
X118291070Y-97734268D02*
X117149098Y-104944393D01*
X112858784Y-96873879D02*
X111716812Y-104084004D01*
X111716812Y-104084004D02*
X112852654Y-104263903D01*
D11*
%TO.C,REF\u002A\u002A*%
X188096795Y-50850020D02*
G75*
G03*
X188096795Y-50850020I-2400000J0D01*
G01*
X176096795Y-50850020D02*
G75*
G03*
X176096795Y-50850020I-2400000J0D01*
G01*
X164096795Y-50850020D02*
G75*
G03*
X164096795Y-50850020I-2400000J0D01*
G01*
X152096795Y-50850020D02*
G75*
G03*
X152096795Y-50850020I-2400000J0D01*
G01*
X140096795Y-50850020D02*
G75*
G03*
X140096795Y-50850020I-2400000J0D01*
G01*
X128096795Y-50850020D02*
G75*
G03*
X128096795Y-50850020I-2400000J0D01*
G01*
X116096795Y-50850020D02*
G75*
G03*
X116096795Y-50850020I-2400000J0D01*
G01*
X188096795Y-108025735D02*
G75*
G03*
X188096795Y-108025735I-2400000J0D01*
G01*
X176096795Y-108025735D02*
G75*
G03*
X176096795Y-108025735I-2400000J0D01*
G01*
X164096795Y-108025735D02*
G75*
G03*
X164096795Y-108025735I-2400000J0D01*
G01*
X152096795Y-108025735D02*
G75*
G03*
X152096795Y-108025735I-2400000J0D01*
G01*
X140096795Y-108025735D02*
G75*
G03*
X140096795Y-108025735I-2400000J0D01*
G01*
X128096795Y-108025735D02*
G75*
G03*
X128096795Y-108025735I-2400000J0D01*
G01*
X116096795Y-108025735D02*
G75*
G03*
X116096795Y-108025735I-2400000J0D01*
G01*
D10*
%TO.C,D6*%
X185718967Y-39608608D02*
X187608346Y-46659867D01*
X180406374Y-41032113D02*
X182295753Y-48083372D01*
X182295753Y-48083372D02*
X183406568Y-47785730D01*
X173718967Y-39608608D02*
X175608346Y-46659867D01*
X168406374Y-41032113D02*
X170295753Y-48083372D01*
X170295753Y-48083372D02*
X171406568Y-47785730D01*
X161718967Y-39608608D02*
X163608346Y-46659867D01*
X156406374Y-41032113D02*
X158295753Y-48083372D01*
X158295753Y-48083372D02*
X159406568Y-47785730D01*
X149718967Y-39608608D02*
X151608346Y-46659867D01*
X144406374Y-41032113D02*
X146295753Y-48083372D01*
X146295753Y-48083372D02*
X147406568Y-47785730D01*
X137718967Y-39608608D02*
X139608346Y-46659867D01*
X132406374Y-41032113D02*
X134295753Y-48083372D01*
X134295753Y-48083372D02*
X135406568Y-47785730D01*
X125718967Y-39608608D02*
X127608346Y-46659867D01*
X120406374Y-41032113D02*
X122295753Y-48083372D01*
X122295753Y-48083372D02*
X123406568Y-47785730D01*
X113718967Y-39608608D02*
X115608346Y-46659867D01*
X108406374Y-41032113D02*
X110295753Y-48083372D01*
X110295753Y-48083372D02*
X111406568Y-47785730D01*
%TO.C,C4*%
X187624640Y-64353341D02*
X188144281Y-64298724D01*
X187778297Y-65815288D02*
X188297938Y-65760671D01*
X175624640Y-64353341D02*
X176144281Y-64298724D01*
X175778297Y-65815288D02*
X176297938Y-65760671D01*
X163624640Y-64353341D02*
X164144281Y-64298724D01*
X163778297Y-65815288D02*
X164297938Y-65760671D01*
X151624640Y-64353341D02*
X152144281Y-64298724D01*
X151778297Y-65815288D02*
X152297938Y-65760671D01*
X139624640Y-64353341D02*
X140144281Y-64298724D01*
X139778297Y-65815288D02*
X140297938Y-65760671D01*
X127624640Y-64353341D02*
X128144281Y-64298724D01*
X127778297Y-65815288D02*
X128297938Y-65760671D01*
X115624640Y-64353341D02*
X116144281Y-64298724D01*
X115778297Y-65815288D02*
X116297938Y-65760671D01*
%TO.C,C3*%
X188450029Y-78673468D02*
X188972533Y-78673468D01*
X188450029Y-80143468D02*
X188972533Y-80143468D01*
X176450029Y-78673468D02*
X176972533Y-78673468D01*
X176450029Y-80143468D02*
X176972533Y-80143468D01*
X164450029Y-78673468D02*
X164972533Y-78673468D01*
X164450029Y-80143468D02*
X164972533Y-80143468D01*
X152450029Y-78673468D02*
X152972533Y-78673468D01*
X152450029Y-80143468D02*
X152972533Y-80143468D01*
X140450029Y-78673468D02*
X140972533Y-78673468D01*
X140450029Y-80143468D02*
X140972533Y-80143468D01*
X128450029Y-78673468D02*
X128972533Y-78673468D01*
X128450029Y-80143468D02*
X128972533Y-80143468D01*
X116450029Y-78673468D02*
X116972533Y-78673468D01*
X116450029Y-80143468D02*
X116972533Y-80143468D01*
%TO.C,D5*%
X189170815Y-53892909D02*
X190312787Y-61103034D01*
X183738529Y-54753298D02*
X184880501Y-61963423D01*
X184880501Y-61963423D02*
X186016342Y-61783524D01*
X177170815Y-53892909D02*
X178312787Y-61103034D01*
X171738529Y-54753298D02*
X172880501Y-61963423D01*
X172880501Y-61963423D02*
X174016342Y-61783524D01*
X165170815Y-53892909D02*
X166312787Y-61103034D01*
X159738529Y-54753298D02*
X160880501Y-61963423D01*
X160880501Y-61963423D02*
X162016342Y-61783524D01*
X153170815Y-53892909D02*
X154312787Y-61103034D01*
X147738529Y-54753298D02*
X148880501Y-61963423D01*
X148880501Y-61963423D02*
X150016342Y-61783524D01*
X141170815Y-53892909D02*
X142312787Y-61103034D01*
X135738529Y-54753298D02*
X136880501Y-61963423D01*
X136880501Y-61963423D02*
X138016342Y-61783524D01*
X129170815Y-53892909D02*
X130312787Y-61103034D01*
X123738529Y-54753298D02*
X124880501Y-61963423D01*
X124880501Y-61963423D02*
X126016342Y-61783524D01*
X117170815Y-53892909D02*
X118312787Y-61103034D01*
X111738529Y-54753298D02*
X112880501Y-61963423D01*
X112880501Y-61963423D02*
X114016342Y-61783524D01*
%TO.C,D6*%
X98295753Y-48083372D02*
X99406568Y-47785730D01*
X96406374Y-41032113D02*
X98295753Y-48083372D01*
X101718967Y-39608608D02*
X103608346Y-46659867D01*
%TO.C,D5*%
X100880501Y-61963423D02*
X102016342Y-61783524D01*
X99738529Y-54753298D02*
X100880501Y-61963423D01*
X105170815Y-53892909D02*
X106312787Y-61103034D01*
%TO.C,C4*%
X103778297Y-65815288D02*
X104297938Y-65760671D01*
X103624640Y-64353341D02*
X104144281Y-64298724D01*
%TO.C,C3*%
X104450029Y-80143468D02*
X104972533Y-80143468D01*
X104450029Y-78673468D02*
X104972533Y-78673468D01*
%TO.C,C2*%
X103606945Y-94495393D02*
X104126586Y-94550010D01*
X103760602Y-93033446D02*
X104280243Y-93088063D01*
%TO.C,D4*%
X101986417Y-76052640D02*
X103134841Y-75992453D01*
X101604365Y-68762644D02*
X101986417Y-76052640D01*
X107096827Y-68474796D02*
X107478879Y-75764792D01*
%TO.C,D3*%
X101580945Y-90099656D02*
X102729369Y-90159842D01*
X101962997Y-82809660D02*
X101580945Y-90099656D01*
X107455459Y-83097508D02*
X107073407Y-90387504D01*
%TO.C,D2*%
X99716812Y-104084004D02*
X100852654Y-104263903D01*
X100858784Y-96873879D02*
X99716812Y-104084004D01*
X106291070Y-97734268D02*
X105149098Y-104944393D01*
%TO.C,D1*%
X96413461Y-117826314D02*
X97524276Y-118123956D01*
X98302840Y-110775055D02*
X96413461Y-117826314D01*
X103615433Y-112198560D02*
X101726054Y-119249819D01*
D11*
%TO.C,REF\u002A\u002A*%
X104096795Y-108025735D02*
G75*
G03*
X104096795Y-108025735I-2400000J0D01*
G01*
X104096795Y-50850020D02*
G75*
G03*
X104096795Y-50850020I-2400000J0D01*
G01*
%TO.C,GND1*%
D12*
X179932994Y-117893204D02*
X179857133Y-117818486D01*
X179721267Y-117774340D01*
X179570687Y-117775484D01*
X179450680Y-117836630D01*
X179375961Y-117912492D01*
X179271813Y-118078930D01*
X179227667Y-118214796D01*
X179214095Y-118410664D01*
X179229954Y-118515956D01*
X179291100Y-118635963D01*
X179412250Y-118725397D01*
X179502827Y-118754827D01*
X179653407Y-118753684D01*
X179713411Y-118723111D01*
X179816417Y-118406092D01*
X179635263Y-118347231D01*
X167932994Y-117893204D02*
X167857133Y-117818486D01*
X167721267Y-117774340D01*
X167570687Y-117775484D01*
X167450680Y-117836630D01*
X167375961Y-117912492D01*
X167271813Y-118078930D01*
X167227667Y-118214796D01*
X167214095Y-118410664D01*
X167229954Y-118515956D01*
X167291100Y-118635963D01*
X167412250Y-118725397D01*
X167502827Y-118754827D01*
X167653407Y-118753684D01*
X167713411Y-118723111D01*
X167816417Y-118406092D01*
X167635263Y-118347231D01*
X155932994Y-117893204D02*
X155857133Y-117818486D01*
X155721267Y-117774340D01*
X155570687Y-117775484D01*
X155450680Y-117836630D01*
X155375961Y-117912492D01*
X155271813Y-118078930D01*
X155227667Y-118214796D01*
X155214095Y-118410664D01*
X155229954Y-118515956D01*
X155291100Y-118635963D01*
X155412250Y-118725397D01*
X155502827Y-118754827D01*
X155653407Y-118753684D01*
X155713411Y-118723111D01*
X155816417Y-118406092D01*
X155635263Y-118347231D01*
X143932994Y-117893204D02*
X143857133Y-117818486D01*
X143721267Y-117774340D01*
X143570687Y-117775484D01*
X143450680Y-117836630D01*
X143375961Y-117912492D01*
X143271813Y-118078930D01*
X143227667Y-118214796D01*
X143214095Y-118410664D01*
X143229954Y-118515956D01*
X143291100Y-118635963D01*
X143412250Y-118725397D01*
X143502827Y-118754827D01*
X143653407Y-118753684D01*
X143713411Y-118723111D01*
X143816417Y-118406092D01*
X143635263Y-118347231D01*
X131932994Y-117893204D02*
X131857133Y-117818486D01*
X131721267Y-117774340D01*
X131570687Y-117775484D01*
X131450680Y-117836630D01*
X131375961Y-117912492D01*
X131271813Y-118078930D01*
X131227667Y-118214796D01*
X131214095Y-118410664D01*
X131229954Y-118515956D01*
X131291100Y-118635963D01*
X131412250Y-118725397D01*
X131502827Y-118754827D01*
X131653407Y-118753684D01*
X131713411Y-118723111D01*
X131816417Y-118406092D01*
X131635263Y-118347231D01*
X119932994Y-117893204D02*
X119857133Y-117818486D01*
X119721267Y-117774340D01*
X119570687Y-117775484D01*
X119450680Y-117836630D01*
X119375961Y-117912492D01*
X119271813Y-118078930D01*
X119227667Y-118214796D01*
X119214095Y-118410664D01*
X119229954Y-118515956D01*
X119291100Y-118635963D01*
X119412250Y-118725397D01*
X119502827Y-118754827D01*
X119653407Y-118753684D01*
X119713411Y-118723111D01*
X119816417Y-118406092D01*
X119635263Y-118347231D01*
X107932994Y-117893204D02*
X107857133Y-117818486D01*
X107721267Y-117774340D01*
X107570687Y-117775484D01*
X107450680Y-117836630D01*
X107375961Y-117912492D01*
X107271813Y-118078930D01*
X107227667Y-118214796D01*
X107214095Y-118410664D01*
X107229954Y-118515956D01*
X107291100Y-118635963D01*
X107412250Y-118725397D01*
X107502827Y-118754827D01*
X107653407Y-118753684D01*
X107713411Y-118723111D01*
X107816417Y-118406092D01*
X107635263Y-118347231D01*
%TO.C,5V*%
X185350479Y-38560139D02*
X184890515Y-38683386D01*
X184967765Y-39155676D01*
X185001437Y-39097354D01*
X185081105Y-39026708D01*
X185311088Y-38965085D01*
X185415405Y-38986432D01*
X185473727Y-39020104D01*
X185544372Y-39099772D01*
X185605996Y-39329754D01*
X185584649Y-39434072D01*
X185550977Y-39492393D01*
X185471309Y-39563039D01*
X185241327Y-39624663D01*
X185137009Y-39603316D01*
X185078688Y-39569644D01*
X185672455Y-38473866D02*
X186253249Y-39353519D01*
X186316405Y-38301320D01*
X173350479Y-38560139D02*
X172890515Y-38683386D01*
X172967765Y-39155676D01*
X173001437Y-39097354D01*
X173081105Y-39026708D01*
X173311088Y-38965085D01*
X173415405Y-38986432D01*
X173473727Y-39020104D01*
X173544372Y-39099772D01*
X173605996Y-39329754D01*
X173584649Y-39434072D01*
X173550977Y-39492393D01*
X173471309Y-39563039D01*
X173241327Y-39624663D01*
X173137009Y-39603316D01*
X173078688Y-39569644D01*
X173672455Y-38473866D02*
X174253249Y-39353519D01*
X174316405Y-38301320D01*
X161350479Y-38560139D02*
X160890515Y-38683386D01*
X160967765Y-39155676D01*
X161001437Y-39097354D01*
X161081105Y-39026708D01*
X161311088Y-38965085D01*
X161415405Y-38986432D01*
X161473727Y-39020104D01*
X161544372Y-39099772D01*
X161605996Y-39329754D01*
X161584649Y-39434072D01*
X161550977Y-39492393D01*
X161471309Y-39563039D01*
X161241327Y-39624663D01*
X161137009Y-39603316D01*
X161078688Y-39569644D01*
X161672455Y-38473866D02*
X162253249Y-39353519D01*
X162316405Y-38301320D01*
X149350479Y-38560139D02*
X148890515Y-38683386D01*
X148967765Y-39155676D01*
X149001437Y-39097354D01*
X149081105Y-39026708D01*
X149311088Y-38965085D01*
X149415405Y-38986432D01*
X149473727Y-39020104D01*
X149544372Y-39099772D01*
X149605996Y-39329754D01*
X149584649Y-39434072D01*
X149550977Y-39492393D01*
X149471309Y-39563039D01*
X149241327Y-39624663D01*
X149137009Y-39603316D01*
X149078688Y-39569644D01*
X149672455Y-38473866D02*
X150253249Y-39353519D01*
X150316405Y-38301320D01*
X137350479Y-38560139D02*
X136890515Y-38683386D01*
X136967765Y-39155676D01*
X137001437Y-39097354D01*
X137081105Y-39026708D01*
X137311088Y-38965085D01*
X137415405Y-38986432D01*
X137473727Y-39020104D01*
X137544372Y-39099772D01*
X137605996Y-39329754D01*
X137584649Y-39434072D01*
X137550977Y-39492393D01*
X137471309Y-39563039D01*
X137241327Y-39624663D01*
X137137009Y-39603316D01*
X137078688Y-39569644D01*
X137672455Y-38473866D02*
X138253249Y-39353519D01*
X138316405Y-38301320D01*
X125350479Y-38560139D02*
X124890515Y-38683386D01*
X124967765Y-39155676D01*
X125001437Y-39097354D01*
X125081105Y-39026708D01*
X125311088Y-38965085D01*
X125415405Y-38986432D01*
X125473727Y-39020104D01*
X125544372Y-39099772D01*
X125605996Y-39329754D01*
X125584649Y-39434072D01*
X125550977Y-39492393D01*
X125471309Y-39563039D01*
X125241327Y-39624663D01*
X125137009Y-39603316D01*
X125078688Y-39569644D01*
X125672455Y-38473866D02*
X126253249Y-39353519D01*
X126316405Y-38301320D01*
X113350479Y-38560139D02*
X112890515Y-38683386D01*
X112967765Y-39155676D01*
X113001437Y-39097354D01*
X113081105Y-39026708D01*
X113311088Y-38965085D01*
X113415405Y-38986432D01*
X113473727Y-39020104D01*
X113544372Y-39099772D01*
X113605996Y-39329754D01*
X113584649Y-39434072D01*
X113550977Y-39492393D01*
X113471309Y-39563039D01*
X113241327Y-39624663D01*
X113137009Y-39603316D01*
X113078688Y-39569644D01*
X113672455Y-38473866D02*
X114253249Y-39353519D01*
X114316405Y-38301320D01*
%TO.C,G*%
X179754571Y-40190851D02*
X179650253Y-40169504D01*
X179512263Y-40206478D01*
X179386599Y-40289448D01*
X179319255Y-40406091D01*
X179297908Y-40510408D01*
X179301211Y-40706719D01*
X179338185Y-40844708D01*
X179433480Y-41016370D01*
X179504126Y-41096038D01*
X179620768Y-41163381D01*
X179771083Y-41172404D01*
X179863075Y-41147754D01*
X179988740Y-41064784D01*
X180022412Y-41006462D01*
X179936139Y-40684487D01*
X179752153Y-40733786D01*
X167754571Y-40190851D02*
X167650253Y-40169504D01*
X167512263Y-40206478D01*
X167386599Y-40289448D01*
X167319255Y-40406091D01*
X167297908Y-40510408D01*
X167301211Y-40706719D01*
X167338185Y-40844708D01*
X167433480Y-41016370D01*
X167504126Y-41096038D01*
X167620768Y-41163381D01*
X167771083Y-41172404D01*
X167863075Y-41147754D01*
X167988740Y-41064784D01*
X168022412Y-41006462D01*
X167936139Y-40684487D01*
X167752153Y-40733786D01*
X155754571Y-40190851D02*
X155650253Y-40169504D01*
X155512263Y-40206478D01*
X155386599Y-40289448D01*
X155319255Y-40406091D01*
X155297908Y-40510408D01*
X155301211Y-40706719D01*
X155338185Y-40844708D01*
X155433480Y-41016370D01*
X155504126Y-41096038D01*
X155620768Y-41163381D01*
X155771083Y-41172404D01*
X155863075Y-41147754D01*
X155988740Y-41064784D01*
X156022412Y-41006462D01*
X155936139Y-40684487D01*
X155752153Y-40733786D01*
X143754571Y-40190851D02*
X143650253Y-40169504D01*
X143512263Y-40206478D01*
X143386599Y-40289448D01*
X143319255Y-40406091D01*
X143297908Y-40510408D01*
X143301211Y-40706719D01*
X143338185Y-40844708D01*
X143433480Y-41016370D01*
X143504126Y-41096038D01*
X143620768Y-41163381D01*
X143771083Y-41172404D01*
X143863075Y-41147754D01*
X143988740Y-41064784D01*
X144022412Y-41006462D01*
X143936139Y-40684487D01*
X143752153Y-40733786D01*
X131754571Y-40190851D02*
X131650253Y-40169504D01*
X131512263Y-40206478D01*
X131386599Y-40289448D01*
X131319255Y-40406091D01*
X131297908Y-40510408D01*
X131301211Y-40706719D01*
X131338185Y-40844708D01*
X131433480Y-41016370D01*
X131504126Y-41096038D01*
X131620768Y-41163381D01*
X131771083Y-41172404D01*
X131863075Y-41147754D01*
X131988740Y-41064784D01*
X132022412Y-41006462D01*
X131936139Y-40684487D01*
X131752153Y-40733786D01*
X119754571Y-40190851D02*
X119650253Y-40169504D01*
X119512263Y-40206478D01*
X119386599Y-40289448D01*
X119319255Y-40406091D01*
X119297908Y-40510408D01*
X119301211Y-40706719D01*
X119338185Y-40844708D01*
X119433480Y-41016370D01*
X119504126Y-41096038D01*
X119620768Y-41163381D01*
X119771083Y-41172404D01*
X119863075Y-41147754D01*
X119988740Y-41064784D01*
X120022412Y-41006462D01*
X119936139Y-40684487D01*
X119752153Y-40733786D01*
X107754571Y-40190851D02*
X107650253Y-40169504D01*
X107512263Y-40206478D01*
X107386599Y-40289448D01*
X107319255Y-40406091D01*
X107297908Y-40510408D01*
X107301211Y-40706719D01*
X107338185Y-40844708D01*
X107433480Y-41016370D01*
X107504126Y-41096038D01*
X107620768Y-41163381D01*
X107771083Y-41172404D01*
X107863075Y-41147754D01*
X107988740Y-41064784D01*
X108022412Y-41006462D01*
X107936139Y-40684487D01*
X107752153Y-40733786D01*
%TO.C,5V*%
X185588069Y-119409922D02*
X185135185Y-119262772D01*
X184942746Y-119700940D01*
X185002750Y-119670367D01*
X185108041Y-119654509D01*
X185334483Y-119728084D01*
X185410345Y-119802803D01*
X185440919Y-119862807D01*
X185456777Y-119968098D01*
X185383201Y-120194540D01*
X185308483Y-120270402D01*
X185248479Y-120300975D01*
X185143187Y-120316834D01*
X184916745Y-120243258D01*
X184840884Y-120168540D01*
X184810310Y-120108536D01*
X185905088Y-119512928D02*
X185913090Y-120566990D01*
X186539126Y-119718939D01*
X173588069Y-119409922D02*
X173135185Y-119262772D01*
X172942746Y-119700940D01*
X173002750Y-119670367D01*
X173108041Y-119654509D01*
X173334483Y-119728084D01*
X173410345Y-119802803D01*
X173440919Y-119862807D01*
X173456777Y-119968098D01*
X173383201Y-120194540D01*
X173308483Y-120270402D01*
X173248479Y-120300975D01*
X173143187Y-120316834D01*
X172916745Y-120243258D01*
X172840884Y-120168540D01*
X172810310Y-120108536D01*
X173905088Y-119512928D02*
X173913090Y-120566990D01*
X174539126Y-119718939D01*
X161588069Y-119409922D02*
X161135185Y-119262772D01*
X160942746Y-119700940D01*
X161002750Y-119670367D01*
X161108041Y-119654509D01*
X161334483Y-119728084D01*
X161410345Y-119802803D01*
X161440919Y-119862807D01*
X161456777Y-119968098D01*
X161383201Y-120194540D01*
X161308483Y-120270402D01*
X161248479Y-120300975D01*
X161143187Y-120316834D01*
X160916745Y-120243258D01*
X160840884Y-120168540D01*
X160810310Y-120108536D01*
X161905088Y-119512928D02*
X161913090Y-120566990D01*
X162539126Y-119718939D01*
X149588069Y-119409922D02*
X149135185Y-119262772D01*
X148942746Y-119700940D01*
X149002750Y-119670367D01*
X149108041Y-119654509D01*
X149334483Y-119728084D01*
X149410345Y-119802803D01*
X149440919Y-119862807D01*
X149456777Y-119968098D01*
X149383201Y-120194540D01*
X149308483Y-120270402D01*
X149248479Y-120300975D01*
X149143187Y-120316834D01*
X148916745Y-120243258D01*
X148840884Y-120168540D01*
X148810310Y-120108536D01*
X149905088Y-119512928D02*
X149913090Y-120566990D01*
X150539126Y-119718939D01*
X137588069Y-119409922D02*
X137135185Y-119262772D01*
X136942746Y-119700940D01*
X137002750Y-119670367D01*
X137108041Y-119654509D01*
X137334483Y-119728084D01*
X137410345Y-119802803D01*
X137440919Y-119862807D01*
X137456777Y-119968098D01*
X137383201Y-120194540D01*
X137308483Y-120270402D01*
X137248479Y-120300975D01*
X137143187Y-120316834D01*
X136916745Y-120243258D01*
X136840884Y-120168540D01*
X136810310Y-120108536D01*
X137905088Y-119512928D02*
X137913090Y-120566990D01*
X138539126Y-119718939D01*
X125588069Y-119409922D02*
X125135185Y-119262772D01*
X124942746Y-119700940D01*
X125002750Y-119670367D01*
X125108041Y-119654509D01*
X125334483Y-119728084D01*
X125410345Y-119802803D01*
X125440919Y-119862807D01*
X125456777Y-119968098D01*
X125383201Y-120194540D01*
X125308483Y-120270402D01*
X125248479Y-120300975D01*
X125143187Y-120316834D01*
X124916745Y-120243258D01*
X124840884Y-120168540D01*
X124810310Y-120108536D01*
X125905088Y-119512928D02*
X125913090Y-120566990D01*
X126539126Y-119718939D01*
X113588069Y-119409922D02*
X113135185Y-119262772D01*
X112942746Y-119700940D01*
X113002750Y-119670367D01*
X113108041Y-119654509D01*
X113334483Y-119728084D01*
X113410345Y-119802803D01*
X113440919Y-119862807D01*
X113456777Y-119968098D01*
X113383201Y-120194540D01*
X113308483Y-120270402D01*
X113248479Y-120300975D01*
X113143187Y-120316834D01*
X112916745Y-120243258D01*
X112840884Y-120168540D01*
X112810310Y-120108536D01*
X113905088Y-119512928D02*
X113913090Y-120566990D01*
X114539126Y-119718939D01*
%TO.C,DO*%
X182341943Y-40518324D02*
X182083124Y-39552398D01*
X182313106Y-39490774D01*
X182463420Y-39499797D01*
X182580062Y-39567140D01*
X182650708Y-39646808D01*
X182746004Y-39818470D01*
X182782978Y-39956459D01*
X182786280Y-40152770D01*
X182764933Y-40257087D01*
X182697590Y-40373730D01*
X182571925Y-40456700D01*
X182341943Y-40518324D01*
X183233035Y-39244280D02*
X183417021Y-39194981D01*
X183521339Y-39216328D01*
X183637981Y-39283672D01*
X183733276Y-39455333D01*
X183819549Y-39777308D01*
X183822852Y-39973619D01*
X183755508Y-40090261D01*
X183675840Y-40160907D01*
X183491854Y-40210206D01*
X183387537Y-40188859D01*
X183270894Y-40121515D01*
X183175599Y-39949854D01*
X183089326Y-39627879D01*
X183086024Y-39431568D01*
X183153367Y-39314926D01*
X183233035Y-39244280D01*
X170341943Y-40518324D02*
X170083124Y-39552398D01*
X170313106Y-39490774D01*
X170463420Y-39499797D01*
X170580062Y-39567140D01*
X170650708Y-39646808D01*
X170746004Y-39818470D01*
X170782978Y-39956459D01*
X170786280Y-40152770D01*
X170764933Y-40257087D01*
X170697590Y-40373730D01*
X170571925Y-40456700D01*
X170341943Y-40518324D01*
X171233035Y-39244280D02*
X171417021Y-39194981D01*
X171521339Y-39216328D01*
X171637981Y-39283672D01*
X171733276Y-39455333D01*
X171819549Y-39777308D01*
X171822852Y-39973619D01*
X171755508Y-40090261D01*
X171675840Y-40160907D01*
X171491854Y-40210206D01*
X171387537Y-40188859D01*
X171270894Y-40121515D01*
X171175599Y-39949854D01*
X171089326Y-39627879D01*
X171086024Y-39431568D01*
X171153367Y-39314926D01*
X171233035Y-39244280D01*
X158341943Y-40518324D02*
X158083124Y-39552398D01*
X158313106Y-39490774D01*
X158463420Y-39499797D01*
X158580062Y-39567140D01*
X158650708Y-39646808D01*
X158746004Y-39818470D01*
X158782978Y-39956459D01*
X158786280Y-40152770D01*
X158764933Y-40257087D01*
X158697590Y-40373730D01*
X158571925Y-40456700D01*
X158341943Y-40518324D01*
X159233035Y-39244280D02*
X159417021Y-39194981D01*
X159521339Y-39216328D01*
X159637981Y-39283672D01*
X159733276Y-39455333D01*
X159819549Y-39777308D01*
X159822852Y-39973619D01*
X159755508Y-40090261D01*
X159675840Y-40160907D01*
X159491854Y-40210206D01*
X159387537Y-40188859D01*
X159270894Y-40121515D01*
X159175599Y-39949854D01*
X159089326Y-39627879D01*
X159086024Y-39431568D01*
X159153367Y-39314926D01*
X159233035Y-39244280D01*
X146341943Y-40518324D02*
X146083124Y-39552398D01*
X146313106Y-39490774D01*
X146463420Y-39499797D01*
X146580062Y-39567140D01*
X146650708Y-39646808D01*
X146746004Y-39818470D01*
X146782978Y-39956459D01*
X146786280Y-40152770D01*
X146764933Y-40257087D01*
X146697590Y-40373730D01*
X146571925Y-40456700D01*
X146341943Y-40518324D01*
X147233035Y-39244280D02*
X147417021Y-39194981D01*
X147521339Y-39216328D01*
X147637981Y-39283672D01*
X147733276Y-39455333D01*
X147819549Y-39777308D01*
X147822852Y-39973619D01*
X147755508Y-40090261D01*
X147675840Y-40160907D01*
X147491854Y-40210206D01*
X147387537Y-40188859D01*
X147270894Y-40121515D01*
X147175599Y-39949854D01*
X147089326Y-39627879D01*
X147086024Y-39431568D01*
X147153367Y-39314926D01*
X147233035Y-39244280D01*
X134341943Y-40518324D02*
X134083124Y-39552398D01*
X134313106Y-39490774D01*
X134463420Y-39499797D01*
X134580062Y-39567140D01*
X134650708Y-39646808D01*
X134746004Y-39818470D01*
X134782978Y-39956459D01*
X134786280Y-40152770D01*
X134764933Y-40257087D01*
X134697590Y-40373730D01*
X134571925Y-40456700D01*
X134341943Y-40518324D01*
X135233035Y-39244280D02*
X135417021Y-39194981D01*
X135521339Y-39216328D01*
X135637981Y-39283672D01*
X135733276Y-39455333D01*
X135819549Y-39777308D01*
X135822852Y-39973619D01*
X135755508Y-40090261D01*
X135675840Y-40160907D01*
X135491854Y-40210206D01*
X135387537Y-40188859D01*
X135270894Y-40121515D01*
X135175599Y-39949854D01*
X135089326Y-39627879D01*
X135086024Y-39431568D01*
X135153367Y-39314926D01*
X135233035Y-39244280D01*
X122341943Y-40518324D02*
X122083124Y-39552398D01*
X122313106Y-39490774D01*
X122463420Y-39499797D01*
X122580062Y-39567140D01*
X122650708Y-39646808D01*
X122746004Y-39818470D01*
X122782978Y-39956459D01*
X122786280Y-40152770D01*
X122764933Y-40257087D01*
X122697590Y-40373730D01*
X122571925Y-40456700D01*
X122341943Y-40518324D01*
X123233035Y-39244280D02*
X123417021Y-39194981D01*
X123521339Y-39216328D01*
X123637981Y-39283672D01*
X123733276Y-39455333D01*
X123819549Y-39777308D01*
X123822852Y-39973619D01*
X123755508Y-40090261D01*
X123675840Y-40160907D01*
X123491854Y-40210206D01*
X123387537Y-40188859D01*
X123270894Y-40121515D01*
X123175599Y-39949854D01*
X123089326Y-39627879D01*
X123086024Y-39431568D01*
X123153367Y-39314926D01*
X123233035Y-39244280D01*
X110341943Y-40518324D02*
X110083124Y-39552398D01*
X110313106Y-39490774D01*
X110463420Y-39499797D01*
X110580062Y-39567140D01*
X110650708Y-39646808D01*
X110746004Y-39818470D01*
X110782978Y-39956459D01*
X110786280Y-40152770D01*
X110764933Y-40257087D01*
X110697590Y-40373730D01*
X110571925Y-40456700D01*
X110341943Y-40518324D01*
X111233035Y-39244280D02*
X111417021Y-39194981D01*
X111521339Y-39216328D01*
X111637981Y-39283672D01*
X111733276Y-39455333D01*
X111819549Y-39777308D01*
X111822852Y-39973619D01*
X111755508Y-40090261D01*
X111675840Y-40160907D01*
X111491854Y-40210206D01*
X111387537Y-40188859D01*
X111270894Y-40121515D01*
X111175599Y-39949854D01*
X111089326Y-39627879D01*
X111086024Y-39431568D01*
X111153367Y-39314926D01*
X111233035Y-39244280D01*
%TO.C,DI1*%
X182317678Y-119325531D02*
X182626695Y-118374474D01*
X182853137Y-118448050D01*
X182974287Y-118537484D01*
X183035434Y-118657491D01*
X183051292Y-118762782D01*
X183037720Y-118958651D01*
X182993575Y-119094516D01*
X182889426Y-119260955D01*
X182814707Y-119336817D01*
X182694700Y-119397963D01*
X182544120Y-119399106D01*
X182317678Y-119325531D01*
X183268734Y-119634548D02*
X183577751Y-118683491D01*
X170317678Y-119325531D02*
X170626695Y-118374474D01*
X170853137Y-118448050D01*
X170974287Y-118537484D01*
X171035434Y-118657491D01*
X171051292Y-118762782D01*
X171037720Y-118958651D01*
X170993575Y-119094516D01*
X170889426Y-119260955D01*
X170814707Y-119336817D01*
X170694700Y-119397963D01*
X170544120Y-119399106D01*
X170317678Y-119325531D01*
X171268734Y-119634548D02*
X171577751Y-118683491D01*
X158317678Y-119325531D02*
X158626695Y-118374474D01*
X158853137Y-118448050D01*
X158974287Y-118537484D01*
X159035434Y-118657491D01*
X159051292Y-118762782D01*
X159037720Y-118958651D01*
X158993575Y-119094516D01*
X158889426Y-119260955D01*
X158814707Y-119336817D01*
X158694700Y-119397963D01*
X158544120Y-119399106D01*
X158317678Y-119325531D01*
X159268734Y-119634548D02*
X159577751Y-118683491D01*
X146317678Y-119325531D02*
X146626695Y-118374474D01*
X146853137Y-118448050D01*
X146974287Y-118537484D01*
X147035434Y-118657491D01*
X147051292Y-118762782D01*
X147037720Y-118958651D01*
X146993575Y-119094516D01*
X146889426Y-119260955D01*
X146814707Y-119336817D01*
X146694700Y-119397963D01*
X146544120Y-119399106D01*
X146317678Y-119325531D01*
X147268734Y-119634548D02*
X147577751Y-118683491D01*
X134317678Y-119325531D02*
X134626695Y-118374474D01*
X134853137Y-118448050D01*
X134974287Y-118537484D01*
X135035434Y-118657491D01*
X135051292Y-118762782D01*
X135037720Y-118958651D01*
X134993575Y-119094516D01*
X134889426Y-119260955D01*
X134814707Y-119336817D01*
X134694700Y-119397963D01*
X134544120Y-119399106D01*
X134317678Y-119325531D01*
X135268734Y-119634548D02*
X135577751Y-118683491D01*
X122317678Y-119325531D02*
X122626695Y-118374474D01*
X122853137Y-118448050D01*
X122974287Y-118537484D01*
X123035434Y-118657491D01*
X123051292Y-118762782D01*
X123037720Y-118958651D01*
X122993575Y-119094516D01*
X122889426Y-119260955D01*
X122814707Y-119336817D01*
X122694700Y-119397963D01*
X122544120Y-119399106D01*
X122317678Y-119325531D01*
X123268734Y-119634548D02*
X123577751Y-118683491D01*
X110317678Y-119325531D02*
X110626695Y-118374474D01*
X110853137Y-118448050D01*
X110974287Y-118537484D01*
X111035434Y-118657491D01*
X111051292Y-118762782D01*
X111037720Y-118958651D01*
X110993575Y-119094516D01*
X110889426Y-119260955D01*
X110814707Y-119336817D01*
X110694700Y-119397963D01*
X110544120Y-119399106D01*
X110317678Y-119325531D01*
X111268734Y-119634548D02*
X111577751Y-118683491D01*
%TO.C,D4*%
X188081410Y-71524192D02*
X189080039Y-71471856D01*
X189092500Y-71709625D01*
X189052423Y-71854778D01*
X188962300Y-71954870D01*
X188869684Y-72007408D01*
X188681961Y-72064931D01*
X188539300Y-72072407D01*
X188346593Y-72034822D01*
X188248993Y-71992253D01*
X188148901Y-71902130D01*
X188093871Y-71761961D01*
X188081410Y-71524192D01*
X188821928Y-72915915D02*
X188156175Y-72950805D01*
X189189898Y-72658208D02*
X188464130Y-72457822D01*
X188496528Y-73076021D01*
X176081410Y-71524192D02*
X177080039Y-71471856D01*
X177092500Y-71709625D01*
X177052423Y-71854778D01*
X176962300Y-71954870D01*
X176869684Y-72007408D01*
X176681961Y-72064931D01*
X176539300Y-72072407D01*
X176346593Y-72034822D01*
X176248993Y-71992253D01*
X176148901Y-71902130D01*
X176093871Y-71761961D01*
X176081410Y-71524192D01*
X176821928Y-72915915D02*
X176156175Y-72950805D01*
X177189898Y-72658208D02*
X176464130Y-72457822D01*
X176496528Y-73076021D01*
X164081410Y-71524192D02*
X165080039Y-71471856D01*
X165092500Y-71709625D01*
X165052423Y-71854778D01*
X164962300Y-71954870D01*
X164869684Y-72007408D01*
X164681961Y-72064931D01*
X164539300Y-72072407D01*
X164346593Y-72034822D01*
X164248993Y-71992253D01*
X164148901Y-71902130D01*
X164093871Y-71761961D01*
X164081410Y-71524192D01*
X164821928Y-72915915D02*
X164156175Y-72950805D01*
X165189898Y-72658208D02*
X164464130Y-72457822D01*
X164496528Y-73076021D01*
X152081410Y-71524192D02*
X153080039Y-71471856D01*
X153092500Y-71709625D01*
X153052423Y-71854778D01*
X152962300Y-71954870D01*
X152869684Y-72007408D01*
X152681961Y-72064931D01*
X152539300Y-72072407D01*
X152346593Y-72034822D01*
X152248993Y-71992253D01*
X152148901Y-71902130D01*
X152093871Y-71761961D01*
X152081410Y-71524192D01*
X152821928Y-72915915D02*
X152156175Y-72950805D01*
X153189898Y-72658208D02*
X152464130Y-72457822D01*
X152496528Y-73076021D01*
X140081410Y-71524192D02*
X141080039Y-71471856D01*
X141092500Y-71709625D01*
X141052423Y-71854778D01*
X140962300Y-71954870D01*
X140869684Y-72007408D01*
X140681961Y-72064931D01*
X140539300Y-72072407D01*
X140346593Y-72034822D01*
X140248993Y-71992253D01*
X140148901Y-71902130D01*
X140093871Y-71761961D01*
X140081410Y-71524192D01*
X140821928Y-72915915D02*
X140156175Y-72950805D01*
X141189898Y-72658208D02*
X140464130Y-72457822D01*
X140496528Y-73076021D01*
X128081410Y-71524192D02*
X129080039Y-71471856D01*
X129092500Y-71709625D01*
X129052423Y-71854778D01*
X128962300Y-71954870D01*
X128869684Y-72007408D01*
X128681961Y-72064931D01*
X128539300Y-72072407D01*
X128346593Y-72034822D01*
X128248993Y-71992253D01*
X128148901Y-71902130D01*
X128093871Y-71761961D01*
X128081410Y-71524192D01*
X128821928Y-72915915D02*
X128156175Y-72950805D01*
X129189898Y-72658208D02*
X128464130Y-72457822D01*
X128496528Y-73076021D01*
X116081410Y-71524192D02*
X117080039Y-71471856D01*
X117092500Y-71709625D01*
X117052423Y-71854778D01*
X116962300Y-71954870D01*
X116869684Y-72007408D01*
X116681961Y-72064931D01*
X116539300Y-72072407D01*
X116346593Y-72034822D01*
X116248993Y-71992253D01*
X116148901Y-71902130D01*
X116093871Y-71761961D01*
X116081410Y-71524192D01*
X116821928Y-72915915D02*
X116156175Y-72950805D01*
X117189898Y-72658208D02*
X116464130Y-72457822D01*
X116496528Y-73076021D01*
%TO.C,C2*%
X187916116Y-92458695D02*
X187863781Y-92501076D01*
X187716728Y-92533502D01*
X187622012Y-92523547D01*
X187484915Y-92461256D01*
X187400154Y-92356584D01*
X187362751Y-92256890D01*
X187335303Y-92062480D01*
X187350235Y-91920406D01*
X187417504Y-91735950D01*
X187474817Y-91646212D01*
X187579488Y-91561450D01*
X187726541Y-91529025D01*
X187821257Y-91538980D01*
X187958354Y-91601271D01*
X188000735Y-91653606D01*
X188379600Y-91693427D02*
X188431936Y-91651046D01*
X188531630Y-91613643D01*
X188768421Y-91638531D01*
X188858159Y-91695844D01*
X188900540Y-91748180D01*
X188937943Y-91847874D01*
X188927988Y-91942590D01*
X188865697Y-92079687D01*
X188237668Y-92588255D01*
X188853325Y-92652963D01*
X175916116Y-92458695D02*
X175863781Y-92501076D01*
X175716728Y-92533502D01*
X175622012Y-92523547D01*
X175484915Y-92461256D01*
X175400154Y-92356584D01*
X175362751Y-92256890D01*
X175335303Y-92062480D01*
X175350235Y-91920406D01*
X175417504Y-91735950D01*
X175474817Y-91646212D01*
X175579488Y-91561450D01*
X175726541Y-91529025D01*
X175821257Y-91538980D01*
X175958354Y-91601271D01*
X176000735Y-91653606D01*
X176379600Y-91693427D02*
X176431936Y-91651046D01*
X176531630Y-91613643D01*
X176768421Y-91638531D01*
X176858159Y-91695844D01*
X176900540Y-91748180D01*
X176937943Y-91847874D01*
X176927988Y-91942590D01*
X176865697Y-92079687D01*
X176237668Y-92588255D01*
X176853325Y-92652963D01*
X163916116Y-92458695D02*
X163863781Y-92501076D01*
X163716728Y-92533502D01*
X163622012Y-92523547D01*
X163484915Y-92461256D01*
X163400154Y-92356584D01*
X163362751Y-92256890D01*
X163335303Y-92062480D01*
X163350235Y-91920406D01*
X163417504Y-91735950D01*
X163474817Y-91646212D01*
X163579488Y-91561450D01*
X163726541Y-91529025D01*
X163821257Y-91538980D01*
X163958354Y-91601271D01*
X164000735Y-91653606D01*
X164379600Y-91693427D02*
X164431936Y-91651046D01*
X164531630Y-91613643D01*
X164768421Y-91638531D01*
X164858159Y-91695844D01*
X164900540Y-91748180D01*
X164937943Y-91847874D01*
X164927988Y-91942590D01*
X164865697Y-92079687D01*
X164237668Y-92588255D01*
X164853325Y-92652963D01*
X151916116Y-92458695D02*
X151863781Y-92501076D01*
X151716728Y-92533502D01*
X151622012Y-92523547D01*
X151484915Y-92461256D01*
X151400154Y-92356584D01*
X151362751Y-92256890D01*
X151335303Y-92062480D01*
X151350235Y-91920406D01*
X151417504Y-91735950D01*
X151474817Y-91646212D01*
X151579488Y-91561450D01*
X151726541Y-91529025D01*
X151821257Y-91538980D01*
X151958354Y-91601271D01*
X152000735Y-91653606D01*
X152379600Y-91693427D02*
X152431936Y-91651046D01*
X152531630Y-91613643D01*
X152768421Y-91638531D01*
X152858159Y-91695844D01*
X152900540Y-91748180D01*
X152937943Y-91847874D01*
X152927988Y-91942590D01*
X152865697Y-92079687D01*
X152237668Y-92588255D01*
X152853325Y-92652963D01*
X139916116Y-92458695D02*
X139863781Y-92501076D01*
X139716728Y-92533502D01*
X139622012Y-92523547D01*
X139484915Y-92461256D01*
X139400154Y-92356584D01*
X139362751Y-92256890D01*
X139335303Y-92062480D01*
X139350235Y-91920406D01*
X139417504Y-91735950D01*
X139474817Y-91646212D01*
X139579488Y-91561450D01*
X139726541Y-91529025D01*
X139821257Y-91538980D01*
X139958354Y-91601271D01*
X140000735Y-91653606D01*
X140379600Y-91693427D02*
X140431936Y-91651046D01*
X140531630Y-91613643D01*
X140768421Y-91638531D01*
X140858159Y-91695844D01*
X140900540Y-91748180D01*
X140937943Y-91847874D01*
X140927988Y-91942590D01*
X140865697Y-92079687D01*
X140237668Y-92588255D01*
X140853325Y-92652963D01*
X127916116Y-92458695D02*
X127863781Y-92501076D01*
X127716728Y-92533502D01*
X127622012Y-92523547D01*
X127484915Y-92461256D01*
X127400154Y-92356584D01*
X127362751Y-92256890D01*
X127335303Y-92062480D01*
X127350235Y-91920406D01*
X127417504Y-91735950D01*
X127474817Y-91646212D01*
X127579488Y-91561450D01*
X127726541Y-91529025D01*
X127821257Y-91538980D01*
X127958354Y-91601271D01*
X128000735Y-91653606D01*
X128379600Y-91693427D02*
X128431936Y-91651046D01*
X128531630Y-91613643D01*
X128768421Y-91638531D01*
X128858159Y-91695844D01*
X128900540Y-91748180D01*
X128937943Y-91847874D01*
X128927988Y-91942590D01*
X128865697Y-92079687D01*
X128237668Y-92588255D01*
X128853325Y-92652963D01*
X115916116Y-92458695D02*
X115863781Y-92501076D01*
X115716728Y-92533502D01*
X115622012Y-92523547D01*
X115484915Y-92461256D01*
X115400154Y-92356584D01*
X115362751Y-92256890D01*
X115335303Y-92062480D01*
X115350235Y-91920406D01*
X115417504Y-91735950D01*
X115474817Y-91646212D01*
X115579488Y-91561450D01*
X115726541Y-91529025D01*
X115821257Y-91538980D01*
X115958354Y-91601271D01*
X116000735Y-91653606D01*
X116379600Y-91693427D02*
X116431936Y-91651046D01*
X116531630Y-91613643D01*
X116768421Y-91638531D01*
X116858159Y-91695844D01*
X116900540Y-91748180D01*
X116937943Y-91847874D01*
X116927988Y-91942590D01*
X116865697Y-92079687D01*
X116237668Y-92588255D01*
X116853325Y-92652963D01*
%TO.C,D1*%
X184321933Y-115841230D02*
X183356007Y-115582411D01*
X183417631Y-115352428D01*
X183500601Y-115226763D01*
X183617244Y-115159420D01*
X183721561Y-115138073D01*
X183917872Y-115141375D01*
X184055861Y-115178349D01*
X184227522Y-115273645D01*
X184307191Y-115344291D01*
X184374534Y-115460933D01*
X184383556Y-115611247D01*
X184321933Y-115841230D01*
X184716324Y-114369343D02*
X184568427Y-114921300D01*
X184642375Y-114645321D02*
X183676450Y-114386502D01*
X183789790Y-114515469D01*
X183857133Y-114632112D01*
X183878480Y-114736429D01*
X172321933Y-115841230D02*
X171356007Y-115582411D01*
X171417631Y-115352428D01*
X171500601Y-115226763D01*
X171617244Y-115159420D01*
X171721561Y-115138073D01*
X171917872Y-115141375D01*
X172055861Y-115178349D01*
X172227522Y-115273645D01*
X172307191Y-115344291D01*
X172374534Y-115460933D01*
X172383556Y-115611247D01*
X172321933Y-115841230D01*
X172716324Y-114369343D02*
X172568427Y-114921300D01*
X172642375Y-114645321D02*
X171676450Y-114386502D01*
X171789790Y-114515469D01*
X171857133Y-114632112D01*
X171878480Y-114736429D01*
X160321933Y-115841230D02*
X159356007Y-115582411D01*
X159417631Y-115352428D01*
X159500601Y-115226763D01*
X159617244Y-115159420D01*
X159721561Y-115138073D01*
X159917872Y-115141375D01*
X160055861Y-115178349D01*
X160227522Y-115273645D01*
X160307191Y-115344291D01*
X160374534Y-115460933D01*
X160383556Y-115611247D01*
X160321933Y-115841230D01*
X160716324Y-114369343D02*
X160568427Y-114921300D01*
X160642375Y-114645321D02*
X159676450Y-114386502D01*
X159789790Y-114515469D01*
X159857133Y-114632112D01*
X159878480Y-114736429D01*
X148321933Y-115841230D02*
X147356007Y-115582411D01*
X147417631Y-115352428D01*
X147500601Y-115226763D01*
X147617244Y-115159420D01*
X147721561Y-115138073D01*
X147917872Y-115141375D01*
X148055861Y-115178349D01*
X148227522Y-115273645D01*
X148307191Y-115344291D01*
X148374534Y-115460933D01*
X148383556Y-115611247D01*
X148321933Y-115841230D01*
X148716324Y-114369343D02*
X148568427Y-114921300D01*
X148642375Y-114645321D02*
X147676450Y-114386502D01*
X147789790Y-114515469D01*
X147857133Y-114632112D01*
X147878480Y-114736429D01*
X136321933Y-115841230D02*
X135356007Y-115582411D01*
X135417631Y-115352428D01*
X135500601Y-115226763D01*
X135617244Y-115159420D01*
X135721561Y-115138073D01*
X135917872Y-115141375D01*
X136055861Y-115178349D01*
X136227522Y-115273645D01*
X136307191Y-115344291D01*
X136374534Y-115460933D01*
X136383556Y-115611247D01*
X136321933Y-115841230D01*
X136716324Y-114369343D02*
X136568427Y-114921300D01*
X136642375Y-114645321D02*
X135676450Y-114386502D01*
X135789790Y-114515469D01*
X135857133Y-114632112D01*
X135878480Y-114736429D01*
X124321933Y-115841230D02*
X123356007Y-115582411D01*
X123417631Y-115352428D01*
X123500601Y-115226763D01*
X123617244Y-115159420D01*
X123721561Y-115138073D01*
X123917872Y-115141375D01*
X124055861Y-115178349D01*
X124227522Y-115273645D01*
X124307191Y-115344291D01*
X124374534Y-115460933D01*
X124383556Y-115611247D01*
X124321933Y-115841230D01*
X124716324Y-114369343D02*
X124568427Y-114921300D01*
X124642375Y-114645321D02*
X123676450Y-114386502D01*
X123789790Y-114515469D01*
X123857133Y-114632112D01*
X123878480Y-114736429D01*
X112321933Y-115841230D02*
X111356007Y-115582411D01*
X111417631Y-115352428D01*
X111500601Y-115226763D01*
X111617244Y-115159420D01*
X111721561Y-115138073D01*
X111917872Y-115141375D01*
X112055861Y-115178349D01*
X112227522Y-115273645D01*
X112307191Y-115344291D01*
X112374534Y-115460933D01*
X112383556Y-115611247D01*
X112321933Y-115841230D01*
X112716324Y-114369343D02*
X112568427Y-114921300D01*
X112642375Y-114645321D02*
X111676450Y-114386502D01*
X111789790Y-114515469D01*
X111857133Y-114632112D01*
X111878480Y-114736429D01*
%TO.C,D2*%
X187379147Y-101688576D02*
X186391459Y-101532141D01*
X186428705Y-101296977D01*
X186498086Y-101163328D01*
X186607050Y-101084161D01*
X186708565Y-101052027D01*
X186904145Y-101034791D01*
X187045243Y-101057139D01*
X187225925Y-101133969D01*
X187312542Y-101195900D01*
X187391709Y-101304864D01*
X187416394Y-101453412D01*
X187379147Y-101688576D01*
X186634510Y-100606384D02*
X186594926Y-100551902D01*
X186562792Y-100450387D01*
X186600038Y-100215223D01*
X186661970Y-100128607D01*
X186716452Y-100089023D01*
X186817966Y-100056889D01*
X186912032Y-100071788D01*
X187045681Y-100141168D01*
X187520683Y-100794953D01*
X187617524Y-100183527D01*
X175379147Y-101688576D02*
X174391459Y-101532141D01*
X174428705Y-101296977D01*
X174498086Y-101163328D01*
X174607050Y-101084161D01*
X174708565Y-101052027D01*
X174904145Y-101034791D01*
X175045243Y-101057139D01*
X175225925Y-101133969D01*
X175312542Y-101195900D01*
X175391709Y-101304864D01*
X175416394Y-101453412D01*
X175379147Y-101688576D01*
X174634510Y-100606384D02*
X174594926Y-100551902D01*
X174562792Y-100450387D01*
X174600038Y-100215223D01*
X174661970Y-100128607D01*
X174716452Y-100089023D01*
X174817966Y-100056889D01*
X174912032Y-100071788D01*
X175045681Y-100141168D01*
X175520683Y-100794953D01*
X175617524Y-100183527D01*
X163379147Y-101688576D02*
X162391459Y-101532141D01*
X162428705Y-101296977D01*
X162498086Y-101163328D01*
X162607050Y-101084161D01*
X162708565Y-101052027D01*
X162904145Y-101034791D01*
X163045243Y-101057139D01*
X163225925Y-101133969D01*
X163312542Y-101195900D01*
X163391709Y-101304864D01*
X163416394Y-101453412D01*
X163379147Y-101688576D01*
X162634510Y-100606384D02*
X162594926Y-100551902D01*
X162562792Y-100450387D01*
X162600038Y-100215223D01*
X162661970Y-100128607D01*
X162716452Y-100089023D01*
X162817966Y-100056889D01*
X162912032Y-100071788D01*
X163045681Y-100141168D01*
X163520683Y-100794953D01*
X163617524Y-100183527D01*
X151379147Y-101688576D02*
X150391459Y-101532141D01*
X150428705Y-101296977D01*
X150498086Y-101163328D01*
X150607050Y-101084161D01*
X150708565Y-101052027D01*
X150904145Y-101034791D01*
X151045243Y-101057139D01*
X151225925Y-101133969D01*
X151312542Y-101195900D01*
X151391709Y-101304864D01*
X151416394Y-101453412D01*
X151379147Y-101688576D01*
X150634510Y-100606384D02*
X150594926Y-100551902D01*
X150562792Y-100450387D01*
X150600038Y-100215223D01*
X150661970Y-100128607D01*
X150716452Y-100089023D01*
X150817966Y-100056889D01*
X150912032Y-100071788D01*
X151045681Y-100141168D01*
X151520683Y-100794953D01*
X151617524Y-100183527D01*
X139379147Y-101688576D02*
X138391459Y-101532141D01*
X138428705Y-101296977D01*
X138498086Y-101163328D01*
X138607050Y-101084161D01*
X138708565Y-101052027D01*
X138904145Y-101034791D01*
X139045243Y-101057139D01*
X139225925Y-101133969D01*
X139312542Y-101195900D01*
X139391709Y-101304864D01*
X139416394Y-101453412D01*
X139379147Y-101688576D01*
X138634510Y-100606384D02*
X138594926Y-100551902D01*
X138562792Y-100450387D01*
X138600038Y-100215223D01*
X138661970Y-100128607D01*
X138716452Y-100089023D01*
X138817966Y-100056889D01*
X138912032Y-100071788D01*
X139045681Y-100141168D01*
X139520683Y-100794953D01*
X139617524Y-100183527D01*
X127379147Y-101688576D02*
X126391459Y-101532141D01*
X126428705Y-101296977D01*
X126498086Y-101163328D01*
X126607050Y-101084161D01*
X126708565Y-101052027D01*
X126904145Y-101034791D01*
X127045243Y-101057139D01*
X127225925Y-101133969D01*
X127312542Y-101195900D01*
X127391709Y-101304864D01*
X127416394Y-101453412D01*
X127379147Y-101688576D01*
X126634510Y-100606384D02*
X126594926Y-100551902D01*
X126562792Y-100450387D01*
X126600038Y-100215223D01*
X126661970Y-100128607D01*
X126716452Y-100089023D01*
X126817966Y-100056889D01*
X126912032Y-100071788D01*
X127045681Y-100141168D01*
X127520683Y-100794953D01*
X127617524Y-100183527D01*
X115379147Y-101688576D02*
X114391459Y-101532141D01*
X114428705Y-101296977D01*
X114498086Y-101163328D01*
X114607050Y-101084161D01*
X114708565Y-101052027D01*
X114904145Y-101034791D01*
X115045243Y-101057139D01*
X115225925Y-101133969D01*
X115312542Y-101195900D01*
X115391709Y-101304864D01*
X115416394Y-101453412D01*
X115379147Y-101688576D01*
X114634510Y-100606384D02*
X114594926Y-100551902D01*
X114562792Y-100450387D01*
X114600038Y-100215223D01*
X114661970Y-100128607D01*
X114716452Y-100089023D01*
X114817966Y-100056889D01*
X114912032Y-100071788D01*
X115045681Y-100141168D01*
X115520683Y-100794953D01*
X115617524Y-100183527D01*
%TO.C,D6*%
X183412320Y-43204919D02*
X184378246Y-42946100D01*
X184439869Y-43176082D01*
X184430847Y-43326396D01*
X184363504Y-43443039D01*
X184283835Y-43513685D01*
X184112174Y-43608980D01*
X183974185Y-43645954D01*
X183777874Y-43649257D01*
X183673557Y-43627910D01*
X183556914Y-43560566D01*
X183473944Y-43434901D01*
X183412320Y-43204919D01*
X184747987Y-44325994D02*
X184698688Y-44142008D01*
X184628043Y-44062340D01*
X184569721Y-44028668D01*
X184407082Y-43973649D01*
X184210772Y-43976952D01*
X183842800Y-44075550D01*
X183763132Y-44146195D01*
X183729460Y-44204517D01*
X183708113Y-44308834D01*
X183757412Y-44492820D01*
X183828058Y-44572488D01*
X183886379Y-44606160D01*
X183990697Y-44627507D01*
X184220679Y-44565884D01*
X184300347Y-44495238D01*
X184334019Y-44436916D01*
X184355366Y-44332599D01*
X184306067Y-44148613D01*
X184235421Y-44068945D01*
X184177100Y-44035273D01*
X184072782Y-44013926D01*
X171412320Y-43204919D02*
X172378246Y-42946100D01*
X172439869Y-43176082D01*
X172430847Y-43326396D01*
X172363504Y-43443039D01*
X172283835Y-43513685D01*
X172112174Y-43608980D01*
X171974185Y-43645954D01*
X171777874Y-43649257D01*
X171673557Y-43627910D01*
X171556914Y-43560566D01*
X171473944Y-43434901D01*
X171412320Y-43204919D01*
X172747987Y-44325994D02*
X172698688Y-44142008D01*
X172628043Y-44062340D01*
X172569721Y-44028668D01*
X172407082Y-43973649D01*
X172210772Y-43976952D01*
X171842800Y-44075550D01*
X171763132Y-44146195D01*
X171729460Y-44204517D01*
X171708113Y-44308834D01*
X171757412Y-44492820D01*
X171828058Y-44572488D01*
X171886379Y-44606160D01*
X171990697Y-44627507D01*
X172220679Y-44565884D01*
X172300347Y-44495238D01*
X172334019Y-44436916D01*
X172355366Y-44332599D01*
X172306067Y-44148613D01*
X172235421Y-44068945D01*
X172177100Y-44035273D01*
X172072782Y-44013926D01*
X159412320Y-43204919D02*
X160378246Y-42946100D01*
X160439869Y-43176082D01*
X160430847Y-43326396D01*
X160363504Y-43443039D01*
X160283835Y-43513685D01*
X160112174Y-43608980D01*
X159974185Y-43645954D01*
X159777874Y-43649257D01*
X159673557Y-43627910D01*
X159556914Y-43560566D01*
X159473944Y-43434901D01*
X159412320Y-43204919D01*
X160747987Y-44325994D02*
X160698688Y-44142008D01*
X160628043Y-44062340D01*
X160569721Y-44028668D01*
X160407082Y-43973649D01*
X160210772Y-43976952D01*
X159842800Y-44075550D01*
X159763132Y-44146195D01*
X159729460Y-44204517D01*
X159708113Y-44308834D01*
X159757412Y-44492820D01*
X159828058Y-44572488D01*
X159886379Y-44606160D01*
X159990697Y-44627507D01*
X160220679Y-44565884D01*
X160300347Y-44495238D01*
X160334019Y-44436916D01*
X160355366Y-44332599D01*
X160306067Y-44148613D01*
X160235421Y-44068945D01*
X160177100Y-44035273D01*
X160072782Y-44013926D01*
X147412320Y-43204919D02*
X148378246Y-42946100D01*
X148439869Y-43176082D01*
X148430847Y-43326396D01*
X148363504Y-43443039D01*
X148283835Y-43513685D01*
X148112174Y-43608980D01*
X147974185Y-43645954D01*
X147777874Y-43649257D01*
X147673557Y-43627910D01*
X147556914Y-43560566D01*
X147473944Y-43434901D01*
X147412320Y-43204919D01*
X148747987Y-44325994D02*
X148698688Y-44142008D01*
X148628043Y-44062340D01*
X148569721Y-44028668D01*
X148407082Y-43973649D01*
X148210772Y-43976952D01*
X147842800Y-44075550D01*
X147763132Y-44146195D01*
X147729460Y-44204517D01*
X147708113Y-44308834D01*
X147757412Y-44492820D01*
X147828058Y-44572488D01*
X147886379Y-44606160D01*
X147990697Y-44627507D01*
X148220679Y-44565884D01*
X148300347Y-44495238D01*
X148334019Y-44436916D01*
X148355366Y-44332599D01*
X148306067Y-44148613D01*
X148235421Y-44068945D01*
X148177100Y-44035273D01*
X148072782Y-44013926D01*
X135412320Y-43204919D02*
X136378246Y-42946100D01*
X136439869Y-43176082D01*
X136430847Y-43326396D01*
X136363504Y-43443039D01*
X136283835Y-43513685D01*
X136112174Y-43608980D01*
X135974185Y-43645954D01*
X135777874Y-43649257D01*
X135673557Y-43627910D01*
X135556914Y-43560566D01*
X135473944Y-43434901D01*
X135412320Y-43204919D01*
X136747987Y-44325994D02*
X136698688Y-44142008D01*
X136628043Y-44062340D01*
X136569721Y-44028668D01*
X136407082Y-43973649D01*
X136210772Y-43976952D01*
X135842800Y-44075550D01*
X135763132Y-44146195D01*
X135729460Y-44204517D01*
X135708113Y-44308834D01*
X135757412Y-44492820D01*
X135828058Y-44572488D01*
X135886379Y-44606160D01*
X135990697Y-44627507D01*
X136220679Y-44565884D01*
X136300347Y-44495238D01*
X136334019Y-44436916D01*
X136355366Y-44332599D01*
X136306067Y-44148613D01*
X136235421Y-44068945D01*
X136177100Y-44035273D01*
X136072782Y-44013926D01*
X123412320Y-43204919D02*
X124378246Y-42946100D01*
X124439869Y-43176082D01*
X124430847Y-43326396D01*
X124363504Y-43443039D01*
X124283835Y-43513685D01*
X124112174Y-43608980D01*
X123974185Y-43645954D01*
X123777874Y-43649257D01*
X123673557Y-43627910D01*
X123556914Y-43560566D01*
X123473944Y-43434901D01*
X123412320Y-43204919D01*
X124747987Y-44325994D02*
X124698688Y-44142008D01*
X124628043Y-44062340D01*
X124569721Y-44028668D01*
X124407082Y-43973649D01*
X124210772Y-43976952D01*
X123842800Y-44075550D01*
X123763132Y-44146195D01*
X123729460Y-44204517D01*
X123708113Y-44308834D01*
X123757412Y-44492820D01*
X123828058Y-44572488D01*
X123886379Y-44606160D01*
X123990697Y-44627507D01*
X124220679Y-44565884D01*
X124300347Y-44495238D01*
X124334019Y-44436916D01*
X124355366Y-44332599D01*
X124306067Y-44148613D01*
X124235421Y-44068945D01*
X124177100Y-44035273D01*
X124072782Y-44013926D01*
X111412320Y-43204919D02*
X112378246Y-42946100D01*
X112439869Y-43176082D01*
X112430847Y-43326396D01*
X112363504Y-43443039D01*
X112283835Y-43513685D01*
X112112174Y-43608980D01*
X111974185Y-43645954D01*
X111777874Y-43649257D01*
X111673557Y-43627910D01*
X111556914Y-43560566D01*
X111473944Y-43434901D01*
X111412320Y-43204919D01*
X112747987Y-44325994D02*
X112698688Y-44142008D01*
X112628043Y-44062340D01*
X112569721Y-44028668D01*
X112407082Y-43973649D01*
X112210772Y-43976952D01*
X111842800Y-44075550D01*
X111763132Y-44146195D01*
X111729460Y-44204517D01*
X111708113Y-44308834D01*
X111757412Y-44492820D01*
X111828058Y-44572488D01*
X111886379Y-44606160D01*
X111990697Y-44627507D01*
X112220679Y-44565884D01*
X112300347Y-44495238D01*
X112334019Y-44436916D01*
X112355366Y-44332599D01*
X112306067Y-44148613D01*
X112235421Y-44068945D01*
X112177100Y-44035273D01*
X112072782Y-44013926D01*
%TO.C,D5*%
X186441241Y-57286091D02*
X187428929Y-57129657D01*
X187466175Y-57364821D01*
X187441490Y-57513368D01*
X187362323Y-57622333D01*
X187275707Y-57684264D01*
X187095025Y-57761094D01*
X186953927Y-57783441D01*
X186758346Y-57766206D01*
X186656832Y-57734071D01*
X186547867Y-57654904D01*
X186478487Y-57521255D01*
X186441241Y-57286091D01*
X187659856Y-58587673D02*
X187585363Y-58117345D01*
X187107586Y-58144805D01*
X187162068Y-58184389D01*
X187224000Y-58271005D01*
X187261246Y-58506169D01*
X187229112Y-58607684D01*
X187189528Y-58662166D01*
X187102912Y-58724097D01*
X186867748Y-58761343D01*
X186766233Y-58729209D01*
X186711751Y-58689625D01*
X186649820Y-58603009D01*
X186612574Y-58367845D01*
X186644708Y-58266330D01*
X186684291Y-58211848D01*
X174441241Y-57286091D02*
X175428929Y-57129657D01*
X175466175Y-57364821D01*
X175441490Y-57513368D01*
X175362323Y-57622333D01*
X175275707Y-57684264D01*
X175095025Y-57761094D01*
X174953927Y-57783441D01*
X174758346Y-57766206D01*
X174656832Y-57734071D01*
X174547867Y-57654904D01*
X174478487Y-57521255D01*
X174441241Y-57286091D01*
X175659856Y-58587673D02*
X175585363Y-58117345D01*
X175107586Y-58144805D01*
X175162068Y-58184389D01*
X175224000Y-58271005D01*
X175261246Y-58506169D01*
X175229112Y-58607684D01*
X175189528Y-58662166D01*
X175102912Y-58724097D01*
X174867748Y-58761343D01*
X174766233Y-58729209D01*
X174711751Y-58689625D01*
X174649820Y-58603009D01*
X174612574Y-58367845D01*
X174644708Y-58266330D01*
X174684291Y-58211848D01*
X162441241Y-57286091D02*
X163428929Y-57129657D01*
X163466175Y-57364821D01*
X163441490Y-57513368D01*
X163362323Y-57622333D01*
X163275707Y-57684264D01*
X163095025Y-57761094D01*
X162953927Y-57783441D01*
X162758346Y-57766206D01*
X162656832Y-57734071D01*
X162547867Y-57654904D01*
X162478487Y-57521255D01*
X162441241Y-57286091D01*
X163659856Y-58587673D02*
X163585363Y-58117345D01*
X163107586Y-58144805D01*
X163162068Y-58184389D01*
X163224000Y-58271005D01*
X163261246Y-58506169D01*
X163229112Y-58607684D01*
X163189528Y-58662166D01*
X163102912Y-58724097D01*
X162867748Y-58761343D01*
X162766233Y-58729209D01*
X162711751Y-58689625D01*
X162649820Y-58603009D01*
X162612574Y-58367845D01*
X162644708Y-58266330D01*
X162684291Y-58211848D01*
X150441241Y-57286091D02*
X151428929Y-57129657D01*
X151466175Y-57364821D01*
X151441490Y-57513368D01*
X151362323Y-57622333D01*
X151275707Y-57684264D01*
X151095025Y-57761094D01*
X150953927Y-57783441D01*
X150758346Y-57766206D01*
X150656832Y-57734071D01*
X150547867Y-57654904D01*
X150478487Y-57521255D01*
X150441241Y-57286091D01*
X151659856Y-58587673D02*
X151585363Y-58117345D01*
X151107586Y-58144805D01*
X151162068Y-58184389D01*
X151224000Y-58271005D01*
X151261246Y-58506169D01*
X151229112Y-58607684D01*
X151189528Y-58662166D01*
X151102912Y-58724097D01*
X150867748Y-58761343D01*
X150766233Y-58729209D01*
X150711751Y-58689625D01*
X150649820Y-58603009D01*
X150612574Y-58367845D01*
X150644708Y-58266330D01*
X150684291Y-58211848D01*
X138441241Y-57286091D02*
X139428929Y-57129657D01*
X139466175Y-57364821D01*
X139441490Y-57513368D01*
X139362323Y-57622333D01*
X139275707Y-57684264D01*
X139095025Y-57761094D01*
X138953927Y-57783441D01*
X138758346Y-57766206D01*
X138656832Y-57734071D01*
X138547867Y-57654904D01*
X138478487Y-57521255D01*
X138441241Y-57286091D01*
X139659856Y-58587673D02*
X139585363Y-58117345D01*
X139107586Y-58144805D01*
X139162068Y-58184389D01*
X139224000Y-58271005D01*
X139261246Y-58506169D01*
X139229112Y-58607684D01*
X139189528Y-58662166D01*
X139102912Y-58724097D01*
X138867748Y-58761343D01*
X138766233Y-58729209D01*
X138711751Y-58689625D01*
X138649820Y-58603009D01*
X138612574Y-58367845D01*
X138644708Y-58266330D01*
X138684291Y-58211848D01*
X126441241Y-57286091D02*
X127428929Y-57129657D01*
X127466175Y-57364821D01*
X127441490Y-57513368D01*
X127362323Y-57622333D01*
X127275707Y-57684264D01*
X127095025Y-57761094D01*
X126953927Y-57783441D01*
X126758346Y-57766206D01*
X126656832Y-57734071D01*
X126547867Y-57654904D01*
X126478487Y-57521255D01*
X126441241Y-57286091D01*
X127659856Y-58587673D02*
X127585363Y-58117345D01*
X127107586Y-58144805D01*
X127162068Y-58184389D01*
X127224000Y-58271005D01*
X127261246Y-58506169D01*
X127229112Y-58607684D01*
X127189528Y-58662166D01*
X127102912Y-58724097D01*
X126867748Y-58761343D01*
X126766233Y-58729209D01*
X126711751Y-58689625D01*
X126649820Y-58603009D01*
X126612574Y-58367845D01*
X126644708Y-58266330D01*
X126684291Y-58211848D01*
X114441241Y-57286091D02*
X115428929Y-57129657D01*
X115466175Y-57364821D01*
X115441490Y-57513368D01*
X115362323Y-57622333D01*
X115275707Y-57684264D01*
X115095025Y-57761094D01*
X114953927Y-57783441D01*
X114758346Y-57766206D01*
X114656832Y-57734071D01*
X114547867Y-57654904D01*
X114478487Y-57521255D01*
X114441241Y-57286091D01*
X115659856Y-58587673D02*
X115585363Y-58117345D01*
X115107586Y-58144805D01*
X115162068Y-58184389D01*
X115224000Y-58271005D01*
X115261246Y-58506169D01*
X115229112Y-58607684D01*
X115189528Y-58662166D01*
X115102912Y-58724097D01*
X114867748Y-58761343D01*
X114766233Y-58729209D01*
X114711751Y-58689625D01*
X114649820Y-58603009D01*
X114612574Y-58367845D01*
X114644708Y-58266330D01*
X114684291Y-58211848D01*
%TO.C,G*%
X95754571Y-40190851D02*
X95650253Y-40169504D01*
X95512263Y-40206478D01*
X95386599Y-40289448D01*
X95319255Y-40406091D01*
X95297908Y-40510408D01*
X95301211Y-40706719D01*
X95338185Y-40844708D01*
X95433480Y-41016370D01*
X95504126Y-41096038D01*
X95620768Y-41163381D01*
X95771083Y-41172404D01*
X95863075Y-41147754D01*
X95988740Y-41064784D01*
X96022412Y-41006462D01*
X95936139Y-40684487D01*
X95752153Y-40733786D01*
%TO.C,DO*%
X98341943Y-40518324D02*
X98083124Y-39552398D01*
X98313106Y-39490774D01*
X98463420Y-39499797D01*
X98580062Y-39567140D01*
X98650708Y-39646808D01*
X98746004Y-39818470D01*
X98782978Y-39956459D01*
X98786280Y-40152770D01*
X98764933Y-40257087D01*
X98697590Y-40373730D01*
X98571925Y-40456700D01*
X98341943Y-40518324D01*
X99233035Y-39244280D02*
X99417021Y-39194981D01*
X99521339Y-39216328D01*
X99637981Y-39283672D01*
X99733276Y-39455333D01*
X99819549Y-39777308D01*
X99822852Y-39973619D01*
X99755508Y-40090261D01*
X99675840Y-40160907D01*
X99491854Y-40210206D01*
X99387537Y-40188859D01*
X99270894Y-40121515D01*
X99175599Y-39949854D01*
X99089326Y-39627879D01*
X99086024Y-39431568D01*
X99153367Y-39314926D01*
X99233035Y-39244280D01*
%TO.C,DI1*%
X98317678Y-119325531D02*
X98626695Y-118374474D01*
X98853137Y-118448050D01*
X98974287Y-118537484D01*
X99035434Y-118657491D01*
X99051292Y-118762782D01*
X99037720Y-118958651D01*
X98993575Y-119094516D01*
X98889426Y-119260955D01*
X98814707Y-119336817D01*
X98694700Y-119397963D01*
X98544120Y-119399106D01*
X98317678Y-119325531D01*
X99268734Y-119634548D02*
X99577751Y-118683491D01*
%TO.C,5V*%
X101350479Y-38560139D02*
X100890515Y-38683386D01*
X100967765Y-39155676D01*
X101001437Y-39097354D01*
X101081105Y-39026708D01*
X101311088Y-38965085D01*
X101415405Y-38986432D01*
X101473727Y-39020104D01*
X101544372Y-39099772D01*
X101605996Y-39329754D01*
X101584649Y-39434072D01*
X101550977Y-39492393D01*
X101471309Y-39563039D01*
X101241327Y-39624663D01*
X101137009Y-39603316D01*
X101078688Y-39569644D01*
X101672455Y-38473866D02*
X102253249Y-39353519D01*
X102316405Y-38301320D01*
X101588069Y-119409922D02*
X101135185Y-119262772D01*
X100942746Y-119700940D01*
X101002750Y-119670367D01*
X101108041Y-119654509D01*
X101334483Y-119728084D01*
X101410345Y-119802803D01*
X101440919Y-119862807D01*
X101456777Y-119968098D01*
X101383201Y-120194540D01*
X101308483Y-120270402D01*
X101248479Y-120300975D01*
X101143187Y-120316834D01*
X100916745Y-120243258D01*
X100840884Y-120168540D01*
X100810310Y-120108536D01*
X101905088Y-119512928D02*
X101913090Y-120566990D01*
X102539126Y-119718939D01*
%TO.C,GND1*%
X95932994Y-117893204D02*
X95857133Y-117818486D01*
X95721267Y-117774340D01*
X95570687Y-117775484D01*
X95450680Y-117836630D01*
X95375961Y-117912492D01*
X95271813Y-118078930D01*
X95227667Y-118214796D01*
X95214095Y-118410664D01*
X95229954Y-118515956D01*
X95291100Y-118635963D01*
X95412250Y-118725397D01*
X95502827Y-118754827D01*
X95653407Y-118753684D01*
X95713411Y-118723111D01*
X95816417Y-118406092D01*
X95635263Y-118347231D01*
%TO.C,D6*%
X99412320Y-43204919D02*
X100378246Y-42946100D01*
X100439869Y-43176082D01*
X100430847Y-43326396D01*
X100363504Y-43443039D01*
X100283835Y-43513685D01*
X100112174Y-43608980D01*
X99974185Y-43645954D01*
X99777874Y-43649257D01*
X99673557Y-43627910D01*
X99556914Y-43560566D01*
X99473944Y-43434901D01*
X99412320Y-43204919D01*
X100747987Y-44325994D02*
X100698688Y-44142008D01*
X100628043Y-44062340D01*
X100569721Y-44028668D01*
X100407082Y-43973649D01*
X100210772Y-43976952D01*
X99842800Y-44075550D01*
X99763132Y-44146195D01*
X99729460Y-44204517D01*
X99708113Y-44308834D01*
X99757412Y-44492820D01*
X99828058Y-44572488D01*
X99886379Y-44606160D01*
X99990697Y-44627507D01*
X100220679Y-44565884D01*
X100300347Y-44495238D01*
X100334019Y-44436916D01*
X100355366Y-44332599D01*
X100306067Y-44148613D01*
X100235421Y-44068945D01*
X100177100Y-44035273D01*
X100072782Y-44013926D01*
%TO.C,D5*%
X102441241Y-57286091D02*
X103428929Y-57129657D01*
X103466175Y-57364821D01*
X103441490Y-57513368D01*
X103362323Y-57622333D01*
X103275707Y-57684264D01*
X103095025Y-57761094D01*
X102953927Y-57783441D01*
X102758346Y-57766206D01*
X102656832Y-57734071D01*
X102547867Y-57654904D01*
X102478487Y-57521255D01*
X102441241Y-57286091D01*
X103659856Y-58587673D02*
X103585363Y-58117345D01*
X103107586Y-58144805D01*
X103162068Y-58184389D01*
X103224000Y-58271005D01*
X103261246Y-58506169D01*
X103229112Y-58607684D01*
X103189528Y-58662166D01*
X103102912Y-58724097D01*
X102867748Y-58761343D01*
X102766233Y-58729209D01*
X102711751Y-58689625D01*
X102649820Y-58603009D01*
X102612574Y-58367845D01*
X102644708Y-58266330D01*
X102684291Y-58211848D01*
%TO.C,C2*%
X103916116Y-92458695D02*
X103863781Y-92501076D01*
X103716728Y-92533502D01*
X103622012Y-92523547D01*
X103484915Y-92461256D01*
X103400154Y-92356584D01*
X103362751Y-92256890D01*
X103335303Y-92062480D01*
X103350235Y-91920406D01*
X103417504Y-91735950D01*
X103474817Y-91646212D01*
X103579488Y-91561450D01*
X103726541Y-91529025D01*
X103821257Y-91538980D01*
X103958354Y-91601271D01*
X104000735Y-91653606D01*
X104379600Y-91693427D02*
X104431936Y-91651046D01*
X104531630Y-91613643D01*
X104768421Y-91638531D01*
X104858159Y-91695844D01*
X104900540Y-91748180D01*
X104937943Y-91847874D01*
X104927988Y-91942590D01*
X104865697Y-92079687D01*
X104237668Y-92588255D01*
X104853325Y-92652963D01*
%TO.C,D4*%
X104081410Y-71524192D02*
X105080039Y-71471856D01*
X105092500Y-71709625D01*
X105052423Y-71854778D01*
X104962300Y-71954870D01*
X104869684Y-72007408D01*
X104681961Y-72064931D01*
X104539300Y-72072407D01*
X104346593Y-72034822D01*
X104248993Y-71992253D01*
X104148901Y-71902130D01*
X104093871Y-71761961D01*
X104081410Y-71524192D01*
X104821928Y-72915915D02*
X104156175Y-72950805D01*
X105189898Y-72658208D02*
X104464130Y-72457822D01*
X104496528Y-73076021D01*
%TO.C,D2*%
X103379147Y-101688576D02*
X102391459Y-101532141D01*
X102428705Y-101296977D01*
X102498086Y-101163328D01*
X102607050Y-101084161D01*
X102708565Y-101052027D01*
X102904145Y-101034791D01*
X103045243Y-101057139D01*
X103225925Y-101133969D01*
X103312542Y-101195900D01*
X103391709Y-101304864D01*
X103416394Y-101453412D01*
X103379147Y-101688576D01*
X102634510Y-100606384D02*
X102594926Y-100551902D01*
X102562792Y-100450387D01*
X102600038Y-100215223D01*
X102661970Y-100128607D01*
X102716452Y-100089023D01*
X102817966Y-100056889D01*
X102912032Y-100071788D01*
X103045681Y-100141168D01*
X103520683Y-100794953D01*
X103617524Y-100183527D01*
%TO.C,D1*%
X100321933Y-115841230D02*
X99356007Y-115582411D01*
X99417631Y-115352428D01*
X99500601Y-115226763D01*
X99617244Y-115159420D01*
X99721561Y-115138073D01*
X99917872Y-115141375D01*
X100055861Y-115178349D01*
X100227522Y-115273645D01*
X100307191Y-115344291D01*
X100374534Y-115460933D01*
X100383556Y-115611247D01*
X100321933Y-115841230D01*
X100716324Y-114369343D02*
X100568427Y-114921300D01*
X100642375Y-114645321D02*
X99676450Y-114386502D01*
X99789790Y-114515469D01*
X99857133Y-114632112D01*
X99878480Y-114736429D01*
%TD*%
M02*
